<?xml version="1.0" encoding="UTF-8" standalone="no"?>
<!DOCTYPE svg PUBLIC "-//W3C//DTD SVG 1.1//EN"
 "http://www.w3.org/Graphics/SVG/1.1/DTD/svg11.dtd">
<!-- Generated by graphviz version 7.0.5 (20221223.1930)
 -->
<!-- Title: packages_MaterialOptimizer Pages: 1 -->
<svg width="1069pt" height="116pt"
 viewBox="0.00 0.00 1069.00 116.00" xmlns="http://www.w3.org/2000/svg" xmlns:xlink="http://www.w3.org/1999/xlink">
<g id="graph0" class="graph" transform="scale(1 1) rotate(0) translate(4 112)">
<title>packages_MaterialOptimizer</title>
<polygon fill="white" stroke="none" points="-4,4 -4,-112 1065,-112 1065,4 -4,4"/>
<!-- BachelorThesis -->
<g id="node1" class="node">
<title>BachelorThesis</title>
<polygon fill="aliceblue" stroke="aliceblue" points="359,-36 256,-36 256,0 359,0 359,-36"/>
<text text-anchor="middle" x="307.5" y="-14.3" font-family="Times New Roman,serif" font-size="14.00">BachelorThesis</text>
</g>
<!-- BachelorThesis.material_optimizer_gui -->
<g id="node2" class="node">
<title>BachelorThesis.material_optimizer_gui</title>
<polygon fill="aliceblue" stroke="aliceblue" points="610,-36 377,-36 377,0 610,0 610,-36"/>
<text text-anchor="middle" x="493.5" y="-14.3" font-family="Times New Roman,serif" font-size="14.00">BachelorThesis.material_optimizer_gui</text>
</g>
<!-- BachelorThesis.src.constants -->
<g id="node4" class="node">
<title>BachelorThesis.src.constants</title>
<polygon fill="antiquewhite" stroke="antiquewhite" points="181,-108 0,-108 0,-72 181,-72 181,-108"/>
<text text-anchor="middle" x="90.5" y="-86.3" font-family="Times New Roman,serif" font-size="14.00">BachelorThesis.src.constants</text>
</g>
<!-- BachelorThesis.material_optimizer_gui&#45;&gt;BachelorThesis.src.constants -->
<g id="edge1" class="edge">
<title>BachelorThesis.material_optimizer_gui&#45;&gt;BachelorThesis.src.constants</title>
<path fill="none" stroke="black" d="M392.85,-36.48C331.21,-47.19 252.62,-60.84 191.02,-71.54"/>
<polygon fill="black" stroke="black" points="181.28,-73.23 190.36,-67.09 186.21,-72.38 191.13,-71.52 191.13,-71.52 191.13,-71.52 186.21,-72.38 191.9,-75.95 181.28,-73.23 181.28,-73.23"/>
</g>
<!-- BachelorThesis.src.material_optimizer_controller -->
<g id="node5" class="node">
<title>BachelorThesis.src.material_optimizer_controller</title>
<polygon fill="antiquewhite" stroke="antiquewhite" points="489.5,-108 199.5,-108 199.5,-72 489.5,-72 489.5,-108"/>
<text text-anchor="middle" x="344.5" y="-86.3" font-family="Times New Roman,serif" font-size="14.00">BachelorThesis.src.material_optimizer_controller</text>
</g>
<!-- BachelorThesis.material_optimizer_gui&#45;&gt;BachelorThesis.src.material_optimizer_controller -->
<g id="edge2" class="edge">
<title>BachelorThesis.material_optimizer_gui&#45;&gt;BachelorThesis.src.material_optimizer_controller</title>
<path fill="none" stroke="black" d="M456.29,-36.48C436.3,-45.87 411.49,-57.53 390.32,-67.47"/>
<polygon fill="black" stroke="black" points="381.5,-71.62 388.64,-63.29 386.02,-69.49 390.55,-67.37 390.55,-67.37 390.55,-67.37 386.02,-69.49 392.46,-71.44 381.5,-71.62 381.5,-71.62"/>
</g>
<!-- BachelorThesis.src.material_optimizer_model -->
<g id="node6" class="node">
<title>BachelorThesis.src.material_optimizer_model</title>
<polygon fill="antiquewhite" stroke="antiquewhite" points="779.5,-108 507.5,-108 507.5,-72 779.5,-72 779.5,-108"/>
<text text-anchor="middle" x="643.5" y="-86.3" font-family="Times New Roman,serif" font-size="14.00">BachelorThesis.src.material_optimizer_model</text>
</g>
<!-- BachelorThesis.material_optimizer_gui&#45;&gt;BachelorThesis.src.material_optimizer_model -->
<g id="edge3" class="edge">
<title>BachelorThesis.material_optimizer_gui&#45;&gt;BachelorThesis.src.material_optimizer_model</title>
<path fill="none" stroke="black" d="M530.96,-36.48C551.09,-45.87 576.06,-57.53 597.37,-67.47"/>
<polygon fill="black" stroke="black" points="606.25,-71.62 595.29,-71.47 601.72,-69.5 597.19,-67.39 597.19,-67.39 597.19,-67.39 601.72,-69.5 599.09,-63.31 606.25,-71.62 606.25,-71.62"/>
</g>
<!-- BachelorThesis.src.material_optimizer_view -->
<g id="node7" class="node">
<title>BachelorThesis.src.material_optimizer_view</title>
<polygon fill="antiquewhite" stroke="antiquewhite" points="1061,-108 798,-108 798,-72 1061,-72 1061,-108"/>
<text text-anchor="middle" x="929.5" y="-86.3" font-family="Times New Roman,serif" font-size="14.00">BachelorThesis.src.material_optimizer_view</text>
</g>
<!-- BachelorThesis.material_optimizer_gui&#45;&gt;BachelorThesis.src.material_optimizer_view -->
<g id="edge4" class="edge">
<title>BachelorThesis.material_optimizer_gui&#45;&gt;BachelorThesis.src.material_optimizer_view</title>
<path fill="none" stroke="black" d="M602.4,-36.48C665.98,-46.69 746.26,-59.58 811.37,-70.03"/>
<polygon fill="black" stroke="black" points="820.86,-71.56 810.27,-74.42 815.92,-70.76 810.99,-69.97 810.99,-69.97 810.99,-69.97 815.92,-70.76 811.7,-65.53 820.86,-71.56 820.86,-71.56"/>
</g>
<!-- BachelorThesis.src -->
<g id="node3" class="node">
<title>BachelorThesis.src</title>
<polygon fill="antiquewhite" stroke="antiquewhite" points="752.5,-36 628.5,-36 628.5,0 752.5,0 752.5,-36"/>
<text text-anchor="middle" x="690.5" y="-14.3" font-family="Times New Roman,serif" font-size="14.00">BachelorThesis.src</text>
</g>
</g>
</svg>
