v 1.394273 2.422768 0.733352
v 1.426353 2.422768 0.750871
v 1.426742 2.422768 0.750159
v 1.394662 2.422768 0.732639
v 1.426447 2.399934 0.750699
v 1.394367 2.399934 0.733180
v 1.394662 2.399543 0.732639
v 1.426742 2.399543 0.750159
v 1.426353 2.400951 0.750871
v 1.426353 2.422768 0.750871
v 1.394273 2.422768 0.733352
v 1.394273 2.400951 0.733352
v 1.394273 2.400951 0.733352
v 1.394367 2.399934 0.733180
v 1.426447 2.399934 0.750699
v 1.426353 2.400951 0.750871
v 1.394367 2.399934 0.733180
v 1.394273 2.400951 0.733352
v 1.394662 2.400951 0.732639
v 1.394662 2.399543 0.732639
v 1.394273 2.422768 0.733352
v 1.394662 2.422768 0.732639
v 1.426353 2.422768 0.750871
v 1.426353 2.400951 0.750871
v 1.426742 2.400951 0.750159
v 1.426742 2.422768 0.750159
v 1.426447 2.399934 0.750699
v 1.426742 2.399543 0.750159
v 1.394662 2.400951 0.732639
v 1.394662 2.422768 0.732639
v 1.426742 2.422768 0.750159
v 1.426742 2.400951 0.750159
v 1.394662 2.400951 0.732639
v 1.426742 2.400951 0.750159
v 1.428493 2.400951 0.746953
v 1.396413 2.400951 0.729434
v 1.426742 2.400951 0.750159
v 1.426742 2.399543 0.750159
v 1.428493 2.399543 0.746953
v 1.428493 2.400951 0.746953
v 1.396413 2.400951 0.729434
v 1.396413 2.399543 0.729434
v 1.426742 2.399543 0.750159
v 1.394662 2.399543 0.732639
v 1.396413 2.399543 0.729434
v 1.428493 2.399543 0.746953
v 1.396413 2.399543 0.729434
v 1.396413 2.400951 0.729434
v 1.428493 2.400951 0.746953
v 1.428493 2.399543 0.746953
vn 0.000000 1.000000 0.000300
vn 0.000000 1.000000 0.000300
vn 0.000000 1.000000 0.000300
vn 0.000000 1.000000 0.000300
vn -0.257000 -0.844000 0.470700
vn -0.257000 -0.844000 0.470700
vn -0.257000 -0.844000 0.470700
vn -0.257000 -0.844000 0.470700
vn -0.479300 0.000000 0.877600
vn -0.479300 0.000000 0.877600
vn -0.479300 0.000000 0.877600
vn -0.479300 0.000000 0.877600
vn -0.470600 -0.188800 0.861900
vn -0.470600 -0.188800 0.861900
vn -0.470600 -0.188800 0.861900
vn -0.470600 -0.188800 0.861900
vn -0.877700 0.000000 -0.479300
vn -0.877700 0.000000 -0.479300
vn -0.877700 0.000000 -0.479300
vn -0.877700 0.000000 -0.479300
vn -0.877700 0.000000 -0.479300
vn -0.877700 0.000000 -0.479300
vn 0.877700 0.000000 0.479200
vn 0.877700 0.000000 0.479200
vn 0.877700 0.000000 0.479200
vn 0.877700 0.000000 0.479200
vn 0.877700 0.000000 0.479200
vn 0.877700 0.000000 0.479200
vn 0.479300 0.000000 -0.877700
vn 0.479300 0.000000 -0.877700
vn 0.479300 0.000000 -0.877700
vn 0.479300 0.000000 -0.877700
vn 0.000000 1.000000 0.000100
vn 0.000000 1.000000 0.000100
vn 0.000000 1.000000 0.000100
vn 0.000000 1.000000 0.000100
vn 0.877600 0.000000 0.479300
vn 0.877600 0.000000 0.479300
vn 0.877600 0.000000 0.479300
vn 0.877600 0.000000 0.479300
vn -0.877700 0.000000 -0.479300
vn -0.877700 0.000000 -0.479300
vn 0.000000 -1.000000 -0.000100
vn 0.000000 -1.000000 -0.000100
vn 0.000000 -1.000000 -0.000100
vn 0.000000 -1.000000 -0.000100
vn 0.479300 0.000000 -0.877700
vn 0.479300 0.000000 -0.877700
vn 0.479300 0.000000 -0.877700
vn 0.479300 0.000000 -0.877700
vt 0.000000 0.000000
vt 0.000000 0.000000
vt 0.000000 0.000000
vt 0.000000 0.000000
vt 0.000000 0.000000
vt 0.000000 0.000000
vt 0.000000 0.000000
vt 0.000000 0.000000
vt 0.000000 0.000000
vt 0.000000 0.000000
vt 0.000000 0.000000
vt 0.000000 0.000000
vt 0.000000 0.000000
vt 0.000000 0.000000
vt 0.000000 0.000000
vt 0.000000 0.000000
vt 0.000000 0.000000
vt 0.000000 0.000000
vt 0.000000 0.000000
vt 0.000000 0.000000
vt 0.000000 0.000000
vt 0.000000 0.000000
vt 0.000000 0.000000
vt 0.000000 0.000000
vt 0.000000 0.000000
vt 0.000000 0.000000
vt 0.000000 0.000000
vt 0.000000 0.000000
vt 0.000000 0.000000
vt 0.000000 0.000000
vt 0.000000 0.000000
vt 0.000000 0.000000
vt 0.000000 0.000000
vt 0.000000 0.000000
vt 0.000000 0.000000
vt 0.000000 0.000000
vt 0.000000 0.000000
vt 0.000000 0.000000
vt 0.000000 0.000000
vt 0.000000 0.000000
vt 0.000000 0.000000
vt 0.000000 0.000000
vt 0.000000 0.000000
vt 0.000000 0.000000
vt 0.000000 0.000000
vt 0.000000 0.000000
vt 0.000000 0.000000
vt 0.000000 0.000000
vt 0.000000 0.000000
vt 0.000000 0.000000
f 1/1/1 2/2/2 3/3/3
f 1/1/1 3/3/3 4/4/4
f 5/5/5 6/6/6 7/7/7
f 5/5/5 7/7/7 8/8/8
f 9/9/9 10/10/10 11/11/11
f 9/9/9 11/11/11 12/12/12
f 13/13/13 14/14/14 15/15/15
f 13/13/13 15/15/15 16/16/16
f 17/17/17 18/18/18 19/19/19
f 17/17/17 19/19/19 20/20/20
f 18/18/18 21/21/21 22/22/22
f 18/18/18 22/22/22 19/19/19
f 23/23/23 24/24/24 25/25/25
f 23/23/23 25/25/25 26/26/26
f 24/24/24 27/27/27 28/28/28
f 24/24/24 28/28/28 25/25/25
f 29/29/29 30/30/30 31/31/31
f 29/29/29 31/31/31 32/32/32
f 33/33/33 34/34/34 35/35/35
f 33/33/33 35/35/35 36/36/36
f 37/37/37 38/38/38 39/39/39
f 37/37/37 39/39/39 40/40/40
f 20/20/20 19/19/19 41/41/41
f 20/20/20 41/41/41 42/42/42
f 43/43/43 44/44/44 45/45/45
f 43/43/43 45/45/45 46/46/46
f 47/47/47 48/48/48 49/49/49
f 47/47/47 49/49/49 50/50/50
