v -2.371554 0.931487 3.771324
v -2.199293 0.931487 3.771324
v -2.199293 1.166198 3.744566
v -2.371554 1.166198 3.744566
v -2.199293 0.933046 3.785006
v -2.371554 0.933046 3.785006
v -2.371554 1.167758 3.758248
v -2.199293 1.167758 3.758248
v -2.198467 0.931630 3.772582
v -2.199293 0.931487 3.771324
v -2.371554 0.931487 3.771324
v -2.371554 0.931630 3.772582
v -2.371554 0.932903 3.783748
v -2.198467 0.932903 3.783748
v -2.371554 0.933046 3.785006
v -2.199293 0.933046 3.785006
v -2.371554 0.933046 3.785006
v -2.371554 0.932903 3.783748
v -2.371554 1.167615 3.756990
v -2.371554 1.167758 3.758248
v -2.371554 0.931630 3.772582
v -2.371554 1.166342 3.745824
v -2.371554 0.931487 3.771324
v -2.371554 1.166198 3.744566
v -2.199293 0.931487 3.771324
v -2.198467 0.931630 3.772582
v -2.198467 1.166342 3.745824
v -2.199293 1.166198 3.744566
v -2.198467 0.931630 3.772582
v -2.198467 0.932903 3.783748
v -2.198467 1.167615 3.756990
v -2.198467 1.166342 3.745824
v -2.198467 0.932903 3.783748
v -2.199293 0.933046 3.785006
v -2.199293 1.167758 3.758248
v -2.198467 1.167615 3.756990
v -2.371554 1.167758 3.758248
v -2.371554 1.167615 3.756990
v -2.198467 1.167615 3.756990
v -2.199293 1.167758 3.758248
v -2.371554 1.166342 3.745824
v -2.198467 1.166342 3.745824
v -2.371554 1.166198 3.744566
v -2.199293 1.166198 3.744566
vn 0.000000 0.113300 0.993600
vn 0.000000 0.113300 0.993600
vn 0.000000 0.113300 0.993600
vn 0.000000 0.113300 0.993600
vn 0.000000 -0.113300 -0.993600
vn 0.000000 -0.113300 -0.993600
vn 0.000000 -0.113300 -0.993600
vn 0.000000 -0.113300 -0.993600
vn 0.000000 0.993600 -0.113300
vn 0.000000 0.993600 -0.113300
vn 0.000000 0.993600 -0.113300
vn 0.000000 0.993600 -0.113300
vn 0.000000 0.993600 -0.113300
vn 0.000000 0.993600 -0.113300
vn 0.000000 0.993600 -0.113300
vn 0.000000 0.993600 -0.113300
vn 1.000000 0.000000 0.000000
vn 1.000000 0.000000 0.000000
vn 1.000000 0.000000 0.000000
vn 1.000000 0.000000 0.000000
vn 1.000000 0.000000 0.000000
vn 1.000000 0.000000 0.000000
vn 1.000000 0.000000 0.000000
vn 1.000000 0.000000 0.000000
vn -0.837500 0.061900 0.542900
vn -0.837500 0.061900 0.542900
vn -0.837500 0.061900 0.542900
vn -0.837500 0.061900 0.542900
vn -1.000000 0.000000 0.000000
vn -1.000000 0.000000 0.000000
vn -1.000000 0.000000 0.000000
vn -1.000000 0.000000 0.000000
vn -0.837500 -0.061900 -0.542900
vn -0.837500 -0.061900 -0.542900
vn -0.837500 -0.061900 -0.542900
vn -0.837500 -0.061900 -0.542900
vn 0.000000 -0.993600 0.113300
vn 0.000000 -0.993600 0.113300
vn 0.000000 -0.993600 0.113300
vn 0.000000 -0.993600 0.113300
vn 0.000000 -0.993600 0.113300
vn 0.000000 -0.993600 0.113300
vn 0.000000 -0.993600 0.113300
vn 0.000000 -0.993600 0.113300
vt 0.702245 0.002481
vt 0.701977 0.002481
vt 0.701977 0.937010
vt 0.702245 0.937010
vt 0.668597 0.002481
vt 0.667691 0.002481
vt 0.667691 0.937010
vt 0.668597 0.937010
vt 0.987148 0.008603
vt 0.989829 0.008603
vt 0.989829 0.127444
vt 0.987148 0.127444
vt 0.946689 0.127444
vt 0.946689 0.008603
vt 0.943949 0.127444
vt 0.943949 0.008603
vt 0.943949 0.127444
vt 0.946689 0.127444
vt 0.946689 0.256778
vt 0.943949 0.256778
vt 0.987148 0.127444
vt 0.987148 0.256778
vt 0.989829 0.127444
vt 0.989829 0.256778
vt 0.701977 0.002481
vt 0.700982 0.002481
vt 0.700982 0.937010
vt 0.701977 0.937010
vt 0.700982 0.002481
vt 0.669055 0.002481
vt 0.669055 0.937010
vt 0.700982 0.937010
vt 0.669055 0.002481
vt 0.668597 0.002481
vt 0.668597 0.937010
vt 0.669055 0.937010
vt 0.943949 0.256778
vt 0.946689 0.256778
vt 0.946689 0.375415
vt 0.943949 0.375415
vt 0.987148 0.256778
vt 0.987148 0.375415
vt 0.989829 0.256778
vt 0.989829 0.375415
f 1/1/1 2/2/2 3/3/3
f 1/1/1 3/3/3 4/4/4
f 5/5/5 6/6/6 7/7/7
f 5/5/5 7/7/7 8/8/8
f 9/9/9 10/10/10 11/11/11
f 9/9/9 11/11/11 12/12/12
f 12/12/12 13/13/13 14/14/14
f 12/12/12 14/14/14 9/9/9
f 13/13/13 15/15/15 16/16/16
f 13/13/13 16/16/16 14/14/14
f 17/17/17 18/18/18 19/19/19
f 17/17/17 19/19/19 20/20/20
f 18/18/18 21/21/21 22/22/22
f 18/18/18 22/22/22 19/19/19
f 21/21/21 23/23/23 24/24/24
f 21/21/21 24/24/24 22/22/22
f 25/25/25 26/26/26 27/27/27
f 25/25/25 27/27/27 28/28/28
f 29/29/29 30/30/30 31/31/31
f 29/29/29 31/31/31 32/32/32
f 33/33/33 34/34/34 35/35/35
f 33/33/33 35/35/35 36/36/36
f 37/37/37 38/38/38 39/39/39
f 37/37/37 39/39/39 40/40/40
f 38/38/38 41/41/41 42/42/42
f 38/38/38 42/42/42 39/39/39
f 41/41/41 43/43/43 44/44/44
f 41/41/41 44/44/44 42/42/42
