v 0.214752 2.469347 0.468543
v 0.215496 2.469347 0.468114
v 0.215496 2.151403 0.468114
v 0.214752 2.151403 0.468543
v 0.214752 2.469347 0.468543
v 0.214752 2.469347 0.469402
v 0.214752 2.151403 0.469402
v 0.214752 2.151403 0.468543
v 0.215496 2.469347 0.469831
v 0.215496 2.151403 0.469831
v 0.216240 2.469347 0.469402
v 0.216240 2.151403 0.469402
v 0.216240 2.469347 0.468543
v 0.216240 2.151403 0.468543
v 0.215496 2.469347 0.468114
v 0.215496 2.151403 0.468114
vn -0.500000 0.000000 -0.866000
vn -0.500000 0.000000 -0.866000
vn -0.500000 0.000000 -0.866000
vn -0.500000 0.000000 -0.866000
vn 1.000000 0.000000 0.000000
vn 0.866000 0.000000 -0.500000
vn 0.866000 0.000000 -0.500000
vn 1.000000 0.000000 0.000000
vn 0.000000 0.000000 -1.000000
vn 0.000000 0.000000 -1.000000
vn -0.866000 0.000000 -0.500000
vn -0.866000 0.000000 -0.500000
vn -0.866000 0.000000 0.500000
vn -0.866000 0.000000 0.500000
vn -0.500000 0.000000 0.866000
vn -0.500000 0.000000 0.866000
vt 0.000000 0.000000
vt 0.000000 0.000000
vt 0.000000 0.000000
vt 0.000000 0.000000
vt 0.000000 0.000000
vt 0.000000 0.000000
vt 0.000000 0.000000
vt 0.000000 0.000000
vt 0.000000 0.000000
vt 0.000000 0.000000
vt 0.000000 0.000000
vt 0.000000 0.000000
vt 0.000000 0.000000
vt 0.000000 0.000000
vt 0.000000 0.000000
vt 0.000000 0.000000
f 1/1/1 2/2/2 3/3/3
f 1/1/1 3/3/3 4/4/4
f 5/5/5 6/6/6 7/7/7
f 5/5/5 7/7/7 8/8/8
f 6/6/6 9/9/9 10/10/10
f 6/6/6 10/10/10 7/7/7
f 9/9/9 11/11/11 12/12/12
f 9/9/9 12/12/12 10/10/10
f 11/11/11 13/13/13 14/14/14
f 11/11/11 14/14/14 12/12/12
f 13/13/13 15/15/15 16/16/16
f 13/13/13 16/16/16 14/14/14
