v -0.713097 2.790362 0.611809
v -0.706530 2.790362 0.608241
v -0.706530 2.738335 0.608241
v -0.713097 2.738335 0.611809
v -0.692547 2.790362 0.633979
v -0.699114 2.790362 0.637547
v -0.699114 2.738335 0.637547
v -0.692547 2.738335 0.633979
v -0.701869 2.790362 0.616820
v -0.706530 2.790362 0.608241
v -0.713097 2.790362 0.611809
v -0.708436 2.790362 0.620388
v -0.703775 2.790362 0.628967
v -0.697208 2.790362 0.625400
v -0.699114 2.790362 0.637547
v -0.692547 2.790362 0.633979
v -0.699114 2.790362 0.637547
v -0.703775 2.790362 0.628967
v -0.703775 2.731864 0.628967
v -0.699114 2.738335 0.637547
v -0.708436 2.790362 0.620388
v -0.708436 2.731864 0.620388
v -0.713097 2.790362 0.611809
v -0.713097 2.738335 0.611809
v -0.706530 2.790362 0.608241
v -0.701869 2.790362 0.616820
v -0.701869 2.731864 0.616820
v -0.706530 2.738335 0.608241
v -0.697208 2.790362 0.625400
v -0.697208 2.731864 0.625400
v -0.692547 2.790362 0.633979
v -0.692547 2.738335 0.633979
v -0.699114 2.738335 0.637547
v -0.703775 2.731864 0.628967
v -0.697208 2.731864 0.625400
v -0.692547 2.738335 0.633979
v -0.703775 2.731864 0.628967
v -0.708436 2.731864 0.620388
v -0.701869 2.731864 0.616820
v -0.697208 2.731864 0.625400
v -0.708436 2.731864 0.620388
v -0.713097 2.738335 0.611809
v -0.706530 2.738335 0.608241
v -0.701869 2.731864 0.616820
v -1.243067 2.790362 0.899744
v -1.243067 2.738335 0.899744
v -1.249634 2.738335 0.903311
v -1.249634 2.790362 0.903311
v -1.235650 2.790362 0.929049
v -1.235650 2.738335 0.929049
v -1.229083 2.738335 0.925481
v -1.229083 2.790362 0.925481
v -1.244972 2.790362 0.911891
v -1.238405 2.790362 0.908323
v -1.243067 2.790362 0.899744
v -1.249634 2.790362 0.903311
v -1.240311 2.790362 0.920470
v -1.233744 2.790362 0.916902
v -1.235650 2.790362 0.929049
v -1.229083 2.790362 0.925481
v -1.229083 2.790362 0.925481
v -1.229083 2.738335 0.925481
v -1.233744 2.731864 0.916902
v -1.233744 2.790362 0.916902
v -1.238405 2.731864 0.908323
v -1.238405 2.790362 0.908323
v -1.243067 2.738335 0.899744
v -1.243067 2.790362 0.899744
v -1.249634 2.790362 0.903311
v -1.249634 2.738335 0.903311
v -1.244972 2.731864 0.911891
v -1.244972 2.790362 0.911891
v -1.240311 2.731864 0.920470
v -1.240311 2.790362 0.920470
v -1.235650 2.738335 0.929049
v -1.235650 2.790362 0.929049
v -1.229083 2.738335 0.925481
v -1.235650 2.738335 0.929049
v -1.240311 2.731864 0.920470
v -1.233744 2.731864 0.916902
v -1.233744 2.731864 0.916902
v -1.240311 2.731864 0.920470
v -1.244972 2.731864 0.911891
v -1.238405 2.731864 0.908323
v -1.238405 2.731864 0.908323
v -1.244972 2.731864 0.911891
v -1.249634 2.738335 0.903311
v -1.243067 2.738335 0.899744
vn -0.477400 0.000000 -0.878700
vn -0.477400 0.000000 -0.878700
vn -0.477400 0.000000 -0.878700
vn -0.477400 0.000000 -0.878700
vn 0.477400 0.000000 0.878700
vn 0.477400 0.000000 0.878700
vn 0.477400 0.000000 0.878700
vn 0.477400 0.000000 0.878700
vn 0.000000 1.000000 0.000000
vn 0.000000 1.000000 0.000000
vn 0.000000 1.000000 0.000000
vn 0.000000 1.000000 0.000000
vn 0.000000 1.000000 0.000000
vn 0.000000 1.000000 0.000000
vn 0.000000 1.000000 0.000000
vn 0.000000 1.000000 0.000000
vn -0.878700 0.000000 0.477400
vn -0.878700 0.000000 0.477400
vn -0.878700 0.000000 0.477400
vn -0.878700 0.000000 0.477400
vn -0.878700 0.000000 0.477400
vn -0.878700 0.000000 0.477400
vn -0.878700 0.000000 0.477400
vn -0.878700 0.000000 0.477400
vn 0.878700 0.000000 -0.477400
vn 0.878700 0.000000 -0.477400
vn 0.878700 0.000000 -0.477400
vn 0.878700 0.000000 -0.477400
vn 0.878700 0.000000 -0.477400
vn 0.878700 0.000000 -0.477400
vn 0.878700 0.000000 -0.477400
vn 0.878700 0.000000 -0.477400
vn 0.263700 -0.833600 0.485400
vn 0.263700 -0.833600 0.485400
vn 0.263700 -0.833600 0.485400
vn 0.263700 -0.833600 0.485400
vn 0.000000 -1.000000 0.000000
vn 0.000000 -1.000000 0.000000
vn 0.000000 -1.000000 0.000000
vn 0.000000 -1.000000 0.000000
vn -0.263700 -0.833600 -0.485400
vn -0.263700 -0.833600 -0.485400
vn -0.263700 -0.833600 -0.485400
vn -0.263700 -0.833600 -0.485400
vn -0.477400 0.000000 -0.878700
vn -0.477400 0.000000 -0.878700
vn -0.477400 0.000000 -0.878700
vn -0.477400 0.000000 -0.878700
vn 0.477400 0.000000 0.878700
vn 0.477400 0.000000 0.878700
vn 0.477400 0.000000 0.878700
vn 0.477400 0.000000 0.878700
vn 0.000000 1.000000 0.000000
vn 0.000000 1.000000 0.000000
vn 0.000000 1.000000 0.000000
vn 0.000000 1.000000 0.000000
vn 0.000000 1.000000 0.000000
vn 0.000000 1.000000 0.000000
vn 0.000000 1.000000 0.000000
vn 0.000000 1.000000 0.000000
vn 0.878700 0.000000 -0.477400
vn 0.878700 0.000000 -0.477400
vn 0.878700 0.000000 -0.477400
vn 0.878700 0.000000 -0.477400
vn 0.878700 0.000000 -0.477400
vn 0.878700 0.000000 -0.477400
vn 0.878700 0.000000 -0.477400
vn 0.878700 0.000000 -0.477400
vn -0.878700 0.000000 0.477400
vn -0.878700 0.000000 0.477400
vn -0.878700 0.000000 0.477400
vn -0.878700 0.000000 0.477400
vn -0.878700 0.000000 0.477400
vn -0.878700 0.000000 0.477400
vn -0.878700 0.000000 0.477400
vn -0.878700 0.000000 0.477400
vn 0.263700 -0.833600 0.485400
vn 0.263700 -0.833600 0.485400
vn 0.263700 -0.833600 0.485400
vn 0.263700 -0.833600 0.485400
vn 0.000000 -1.000000 0.000000
vn 0.000000 -1.000000 0.000000
vn 0.000000 -1.000000 0.000000
vn 0.000000 -1.000000 0.000000
vn -0.263700 -0.833600 -0.485400
vn -0.263700 -0.833600 -0.485400
vn -0.263700 -0.833600 -0.485400
vn -0.263700 -0.833600 -0.485400
vt 0.000000 0.000000
vt 0.000000 0.000000
vt 0.000000 0.000000
vt 0.000000 0.000000
vt 0.000000 0.000000
vt 0.000000 0.000000
vt 0.000000 0.000000
vt 0.000000 0.000000
vt 0.000000 0.000000
vt 0.000000 0.000000
vt 0.000000 0.000000
vt 0.000000 0.000000
vt 0.000000 0.000000
vt 0.000000 0.000000
vt 0.000000 0.000000
vt 0.000000 0.000000
vt 0.000000 0.000000
vt 0.000000 0.000000
vt 0.000000 0.000000
vt 0.000000 0.000000
vt 0.000000 0.000000
vt 0.000000 0.000000
vt 0.000000 0.000000
vt 0.000000 0.000000
vt 0.000000 0.000000
vt 0.000000 0.000000
vt 0.000000 0.000000
vt 0.000000 0.000000
vt 0.000000 0.000000
vt 0.000000 0.000000
vt 0.000000 0.000000
vt 0.000000 0.000000
vt 0.000000 0.000000
vt 0.000000 0.000000
vt 0.000000 0.000000
vt 0.000000 0.000000
vt 0.000000 0.000000
vt 0.000000 0.000000
vt 0.000000 0.000000
vt 0.000000 0.000000
vt 0.000000 0.000000
vt 0.000000 0.000000
vt 0.000000 0.000000
vt 0.000000 0.000000
vt 0.000000 0.000000
vt 0.000000 0.000000
vt 0.000000 0.000000
vt 0.000000 0.000000
vt 0.000000 0.000000
vt 0.000000 0.000000
vt 0.000000 0.000000
vt 0.000000 0.000000
vt 0.000000 0.000000
vt 0.000000 0.000000
vt 0.000000 0.000000
vt 0.000000 0.000000
vt 0.000000 0.000000
vt 0.000000 0.000000
vt 0.000000 0.000000
vt 0.000000 0.000000
vt 0.000000 0.000000
vt 0.000000 0.000000
vt 0.000000 0.000000
vt 0.000000 0.000000
vt 0.000000 0.000000
vt 0.000000 0.000000
vt 0.000000 0.000000
vt 0.000000 0.000000
vt 0.000000 0.000000
vt 0.000000 0.000000
vt 0.000000 0.000000
vt 0.000000 0.000000
vt 0.000000 0.000000
vt 0.000000 0.000000
vt 0.000000 0.000000
vt 0.000000 0.000000
vt 0.000000 0.000000
vt 0.000000 0.000000
vt 0.000000 0.000000
vt 0.000000 0.000000
vt 0.000000 0.000000
vt 0.000000 0.000000
vt 0.000000 0.000000
vt 0.000000 0.000000
vt 0.000000 0.000000
vt 0.000000 0.000000
vt 0.000000 0.000000
vt 0.000000 0.000000
f 1/1/1 2/2/2 3/3/3
f 1/1/1 3/3/3 4/4/4
f 5/5/5 6/6/6 7/7/7
f 5/5/5 7/7/7 8/8/8
f 9/9/9 10/10/10 11/11/11
f 9/9/9 11/11/11 12/12/12
f 12/12/12 13/13/13 14/14/14
f 12/12/12 14/14/14 9/9/9
f 13/13/13 15/15/15 16/16/16
f 13/13/13 16/16/16 14/14/14
f 17/17/17 18/18/18 19/19/19
f 17/17/17 19/19/19 20/20/20
f 18/18/18 21/21/21 22/22/22
f 18/18/18 22/22/22 19/19/19
f 21/21/21 23/23/23 24/24/24
f 21/21/21 24/24/24 22/22/22
f 25/25/25 26/26/26 27/27/27
f 25/25/25 27/27/27 28/28/28
f 26/26/26 29/29/29 30/30/30
f 26/26/26 30/30/30 27/27/27
f 29/29/29 31/31/31 32/32/32
f 29/29/29 32/32/32 30/30/30
f 33/33/33 34/34/34 35/35/35
f 33/33/33 35/35/35 36/36/36
f 37/37/37 38/38/38 39/39/39
f 37/37/37 39/39/39 40/40/40
f 41/41/41 42/42/42 43/43/43
f 41/41/41 43/43/43 44/44/44
f 45/45/45 46/46/46 47/47/47
f 45/45/45 47/47/47 48/48/48
f 49/49/49 50/50/50 51/51/51
f 49/49/49 51/51/51 52/52/52
f 53/53/53 54/54/54 55/55/55
f 53/53/53 55/55/55 56/56/56
f 54/54/54 53/53/53 57/57/57
f 54/54/54 57/57/57 58/58/58
f 58/58/58 57/57/57 59/59/59
f 58/58/58 59/59/59 60/60/60
f 61/61/61 62/62/62 63/63/63
f 61/61/61 63/63/63 64/64/64
f 64/64/64 63/63/63 65/65/65
f 64/64/64 65/65/65 66/66/66
f 66/66/66 65/65/65 67/67/67
f 66/66/66 67/67/67 68/68/68
f 69/69/69 70/70/70 71/71/71
f 69/69/69 71/71/71 72/72/72
f 72/72/72 71/71/71 73/73/73
f 72/72/72 73/73/73 74/74/74
f 74/74/74 73/73/73 75/75/75
f 74/74/74 75/75/75 76/76/76
f 77/77/77 78/78/78 79/79/79
f 77/77/77 79/79/79 80/80/80
f 81/81/81 82/82/82 83/83/83
f 81/81/81 83/83/83 84/84/84
f 85/85/85 86/86/86 87/87/87
f 85/85/85 87/87/87 88/88/88
