v -2.410498 0.935024 4.071174
v -2.186996 0.935024 4.071174
v -2.186996 1.112529 4.094565
v -2.410498 1.112529 4.094565
v -2.186996 0.932730 4.088584
v -2.410498 0.932730 4.088584
v -2.410498 1.110235 4.111976
v -2.186996 1.110235 4.111976
v -2.186170 0.934859 4.072429
v -2.186996 0.935024 4.071174
v -2.410498 0.935024 4.071174
v -2.410498 0.934859 4.072429
v -2.410498 0.932895 4.087329
v -2.186170 0.932895 4.087329
v -2.410498 0.932895 4.087329
v -2.410498 0.932730 4.088584
v -2.186996 0.932730 4.088584
v -2.186170 0.932895 4.087329
v -2.410498 0.932730 4.088584
v -2.410498 0.932895 4.087329
v -2.410498 1.110400 4.110721
v -2.410498 1.110235 4.111976
v -2.410498 0.932895 4.087329
v -2.410498 0.934859 4.072429
v -2.410498 1.112364 4.095820
v -2.410498 1.110400 4.110721
v -2.410498 0.935024 4.071174
v -2.410498 1.112529 4.094565
v -2.186996 0.935024 4.071174
v -2.186170 0.934859 4.072429
v -2.186170 1.112364 4.095820
v -2.186996 1.112529 4.094565
v -2.186170 0.934859 4.072429
v -2.186170 0.932895 4.087329
v -2.186170 1.110400 4.110721
v -2.186170 1.112364 4.095820
v -2.186170 0.932895 4.087329
v -2.186996 0.932730 4.088584
v -2.186996 1.110235 4.111976
v -2.186170 1.110400 4.110721
v -2.410498 1.110235 4.111976
v -2.410498 1.110400 4.110721
v -2.186170 1.110400 4.110721
v -2.186996 1.110235 4.111976
v -2.410498 1.110400 4.110721
v -2.410498 1.112364 4.095820
v -2.186170 1.112364 4.095820
v -2.186170 1.110400 4.110721
v -2.410498 1.112364 4.095820
v -2.410498 1.112529 4.094565
v -2.186996 1.112529 4.094565
v -2.186170 1.112364 4.095820
vn 0.000000 -0.130700 0.991400
vn 0.000000 -0.130700 0.991400
vn 0.000000 -0.130700 0.991400
vn 0.000000 -0.130700 0.991400
vn 0.000000 0.130600 -0.991400
vn 0.000000 0.130600 -0.991400
vn 0.000000 0.130600 -0.991400
vn 0.000000 0.130600 -0.991400
vn 0.000000 0.991400 0.130700
vn 0.000000 0.991400 0.130700
vn 0.000000 0.991400 0.130700
vn 0.000000 0.991400 0.130700
vn 0.000000 0.991400 0.130700
vn 0.000000 0.991400 0.130700
vn 0.000000 0.991400 0.130600
vn 0.000000 0.991400 0.130600
vn 0.000000 0.991400 0.130600
vn 0.000000 0.991400 0.130600
vn 1.000000 -0.000000 0.000100
vn 1.000000 -0.000000 0.000100
vn 1.000000 -0.000000 0.000100
vn 1.000000 -0.000000 0.000100
vn 1.000000 0.000000 0.000000
vn 1.000000 0.000000 0.000000
vn 1.000000 0.000000 0.000000
vn 1.000000 0.000000 0.000000
vn 1.000000 0.000000 0.000000
vn 1.000000 0.000000 0.000000
vn -0.837400 -0.071400 0.541900
vn -0.837400 -0.071400 0.541900
vn -0.837400 -0.071400 0.541900
vn -0.837400 -0.071400 0.541900
vn -1.000000 0.000000 0.000000
vn -1.000000 0.000000 0.000000
vn -1.000000 0.000000 0.000000
vn -1.000000 0.000000 0.000000
vn -0.837400 0.071400 -0.541900
vn -0.837400 0.071400 -0.541900
vn -0.837400 0.071400 -0.541900
vn -0.837400 0.071400 -0.541900
vn 0.000000 -0.991400 -0.130600
vn 0.000000 -0.991400 -0.130600
vn 0.000000 -0.991400 -0.130600
vn 0.000000 -0.991400 -0.130600
vn 0.000000 -0.991400 -0.130700
vn 0.000000 -0.991400 -0.130700
vn 0.000000 -0.991400 -0.130700
vn 0.000000 -0.991400 -0.130700
vn 0.000000 -0.991400 -0.130600
vn 0.000000 -0.991400 -0.130600
vn 0.000000 -0.991400 -0.130600
vn 0.000000 -0.991400 -0.130600
vt 0.085053 0.002481
vt 0.084620 0.002481
vt 0.084620 0.760408
vt 0.085053 0.760408
vt 0.041930 0.002481
vt 0.040506 0.002481
vt 0.040506 0.760408
vt 0.041930 0.760408
vt 0.987148 0.008603
vt 0.989829 0.008603
vt 0.989829 0.127444
vt 0.987148 0.127444
vt 0.946689 0.127444
vt 0.946689 0.008603
vt 0.946689 0.127444
vt 0.943949 0.127444
vt 0.943949 0.008603
vt 0.946689 0.008603
vt 0.943949 0.127444
vt 0.946689 0.127444
vt 0.946689 0.256778
vt 0.943949 0.256778
vt 0.946689 0.127444
vt 0.987148 0.127444
vt 0.987148 0.256778
vt 0.946689 0.256778
vt 0.989829 0.127444
vt 0.989829 0.256778
vt 0.084620 0.002481
vt 0.083038 0.002481
vt 0.083038 0.760408
vt 0.084620 0.760408
vt 0.083038 0.002481
vt 0.043314 0.002481
vt 0.043314 0.760408
vt 0.083038 0.760408
vt 0.043314 0.002481
vt 0.041930 0.002481
vt 0.041930 0.760408
vt 0.043314 0.760408
vt 0.943949 0.256778
vt 0.946689 0.256778
vt 0.946689 0.375415
vt 0.943949 0.375415
vt 0.946689 0.256778
vt 0.987148 0.256778
vt 0.987148 0.375415
vt 0.946689 0.375415
vt 0.987148 0.256778
vt 0.989829 0.256778
vt 0.989829 0.375415
vt 0.987148 0.375415
f 1/1/1 2/2/2 3/3/3
f 1/1/1 3/3/3 4/4/4
f 5/5/5 6/6/6 7/7/7
f 5/5/5 7/7/7 8/8/8
f 9/9/9 10/10/10 11/11/11
f 9/9/9 11/11/11 12/12/12
f 12/12/12 13/13/13 14/14/14
f 12/12/12 14/14/14 9/9/9
f 15/15/15 16/16/16 17/17/17
f 15/15/15 17/17/17 18/18/18
f 19/19/19 20/20/20 21/21/21
f 19/19/19 21/21/21 22/22/22
f 23/23/23 24/24/24 25/25/25
f 23/23/23 25/25/25 26/26/26
f 24/24/24 27/27/27 28/28/28
f 24/24/24 28/28/28 25/25/25
f 29/29/29 30/30/30 31/31/31
f 29/29/29 31/31/31 32/32/32
f 33/33/33 34/34/34 35/35/35
f 33/33/33 35/35/35 36/36/36
f 37/37/37 38/38/38 39/39/39
f 37/37/37 39/39/39 40/40/40
f 41/41/41 42/42/42 43/43/43
f 41/41/41 43/43/43 44/44/44
f 45/45/45 46/46/46 47/47/47
f 45/45/45 47/47/47 48/48/48
f 49/49/49 50/50/50 51/51/51
f 49/49/49 51/51/51 52/52/52
