v -0.997804 2.401414 0.756477
v -0.965686 2.401414 0.739027
v -0.966074 2.401414 0.738314
v -0.998192 2.401414 0.755764
v -0.965780 2.378580 0.738855
v -0.997898 2.378580 0.756305
v -0.998192 2.378189 0.755764
v -0.966074 2.378189 0.738314
v -0.965686 2.379598 0.739027
v -0.965686 2.401414 0.739027
v -0.997804 2.401414 0.756477
v -0.997804 2.379598 0.756477
v -0.997804 2.379598 0.756477
v -0.997898 2.378580 0.756305
v -0.965780 2.378580 0.738855
v -0.965686 2.379598 0.739027
v -0.997898 2.378580 0.756305
v -0.997804 2.379598 0.756477
v -0.998192 2.379598 0.755764
v -0.998192 2.378189 0.755764
v -0.997804 2.379598 0.756477
v -0.997804 2.401414 0.756477
v -0.998192 2.401414 0.755764
v -0.998192 2.379598 0.755764
v -0.965686 2.401414 0.739027
v -0.965686 2.379598 0.739027
v -0.966074 2.379598 0.738314
v -0.966074 2.401414 0.738314
v -0.965686 2.379598 0.739027
v -0.965780 2.378580 0.738855
v -0.966074 2.378189 0.738314
v -0.966074 2.379598 0.738314
v -0.998192 2.379598 0.755764
v -0.998192 2.401414 0.755764
v -0.966074 2.401414 0.738314
v -0.966074 2.379598 0.738314
v -0.998192 2.379598 0.755764
v -0.966074 2.379598 0.738314
v -0.967817 2.379598 0.735104
v -0.999935 2.379598 0.752554
v -0.966074 2.378189 0.738314
v -0.967817 2.378189 0.735104
v -0.967817 2.379598 0.735104
v -0.998192 2.378189 0.755764
v -0.998192 2.379598 0.755764
v -0.999935 2.379598 0.752554
v -0.999935 2.378189 0.752554
v -0.966074 2.378189 0.738314
v -0.998192 2.378189 0.755764
v -0.999935 2.378189 0.752554
v -0.967817 2.378189 0.735104
v -0.999935 2.378189 0.752554
v -0.999935 2.379598 0.752554
v -0.967817 2.379598 0.735104
v -0.967817 2.378189 0.735104
vn 0.000000 1.000000 0.000000
vn 0.000000 1.000000 0.000000
vn 0.000000 1.000000 0.000000
vn 0.000000 1.000000 0.000000
vn 0.256000 -0.844100 0.471100
vn 0.256000 -0.844100 0.471100
vn 0.256000 -0.844100 0.471100
vn 0.256000 -0.844100 0.471100
vn 0.477400 0.000000 0.878700
vn 0.477400 0.000000 0.878700
vn 0.477400 0.000000 0.878700
vn 0.477400 0.000000 0.878700
vn 0.468800 -0.188900 0.862900
vn 0.468800 -0.188900 0.862900
vn 0.468800 -0.188900 0.862900
vn 0.468800 -0.188900 0.862900
vn -0.878700 -0.000100 0.477300
vn -0.878700 -0.000100 0.477300
vn -0.878700 -0.000100 0.477300
vn -0.878700 -0.000100 0.477300
vn -0.878700 0.000000 0.477300
vn -0.878700 0.000000 0.477300
vn -0.878700 0.000000 0.477300
vn -0.878700 0.000000 0.477300
vn 0.878700 0.000000 -0.477400
vn 0.878700 0.000000 -0.477400
vn 0.878700 0.000000 -0.477400
vn 0.878700 0.000000 -0.477400
vn 0.878700 -0.000100 -0.477300
vn 0.878700 -0.000100 -0.477300
vn 0.878700 -0.000100 -0.477300
vn 0.878700 -0.000100 -0.477300
vn -0.477400 0.000000 -0.878700
vn -0.477400 0.000000 -0.878700
vn -0.477400 0.000000 -0.878700
vn -0.477400 0.000000 -0.878700
vn 0.000000 1.000000 0.000000
vn 0.000000 1.000000 0.000000
vn 0.000000 1.000000 0.000000
vn 0.000000 1.000000 0.000000
vn 0.878700 0.000000 -0.477400
vn 0.878700 0.000000 -0.477400
vn 0.878700 0.000000 -0.477400
vn -0.878700 0.000000 0.477400
vn -0.878700 0.000000 0.477400
vn -0.878700 0.000000 0.477400
vn -0.878700 0.000000 0.477400
vn 0.000000 -1.000000 0.000000
vn 0.000000 -1.000000 0.000000
vn 0.000000 -1.000000 0.000000
vn 0.000000 -1.000000 0.000000
vn -0.477400 0.000000 -0.878700
vn -0.477400 0.000000 -0.878700
vn -0.477400 0.000000 -0.878700
vn -0.477400 0.000000 -0.878700
vt 0.000000 0.000000
vt 0.000000 0.000000
vt 0.000000 0.000000
vt 0.000000 0.000000
vt 0.000000 0.000000
vt 0.000000 0.000000
vt 0.000000 0.000000
vt 0.000000 0.000000
vt 0.000000 0.000000
vt 0.000000 0.000000
vt 0.000000 0.000000
vt 0.000000 0.000000
vt 0.000000 0.000000
vt 0.000000 0.000000
vt 0.000000 0.000000
vt 0.000000 0.000000
vt 0.000000 0.000000
vt 0.000000 0.000000
vt 0.000000 0.000000
vt 0.000000 0.000000
vt 0.000000 0.000000
vt 0.000000 0.000000
vt 0.000000 0.000000
vt 0.000000 0.000000
vt 0.000000 0.000000
vt 0.000000 0.000000
vt 0.000000 0.000000
vt 0.000000 0.000000
vt 0.000000 0.000000
vt 0.000000 0.000000
vt 0.000000 0.000000
vt 0.000000 0.000000
vt 0.000000 0.000000
vt 0.000000 0.000000
vt 0.000000 0.000000
vt 0.000000 0.000000
vt 0.000000 0.000000
vt 0.000000 0.000000
vt 0.000000 0.000000
vt 0.000000 0.000000
vt 0.000000 0.000000
vt 0.000000 0.000000
vt 0.000000 0.000000
vt 0.000000 0.000000
vt 0.000000 0.000000
vt 0.000000 0.000000
vt 0.000000 0.000000
vt 0.000000 0.000000
vt 0.000000 0.000000
vt 0.000000 0.000000
vt 0.000000 0.000000
vt 0.000000 0.000000
vt 0.000000 0.000000
vt 0.000000 0.000000
vt 0.000000 0.000000
f 1/1/1 2/2/2 3/3/3
f 1/1/1 3/3/3 4/4/4
f 5/5/5 6/6/6 7/7/7
f 5/5/5 7/7/7 8/8/8
f 9/9/9 10/10/10 11/11/11
f 9/9/9 11/11/11 12/12/12
f 13/13/13 14/14/14 15/15/15
f 13/13/13 15/15/15 16/16/16
f 17/17/17 18/18/18 19/19/19
f 17/17/17 19/19/19 20/20/20
f 21/21/21 22/22/22 23/23/23
f 21/21/21 23/23/23 24/24/24
f 25/25/25 26/26/26 27/27/27
f 25/25/25 27/27/27 28/28/28
f 29/29/29 30/30/30 31/31/31
f 29/29/29 31/31/31 32/32/32
f 33/33/33 34/34/34 35/35/35
f 33/33/33 35/35/35 36/36/36
f 37/37/37 38/38/38 39/39/39
f 37/37/37 39/39/39 40/40/40
f 27/27/27 41/41/41 42/42/42
f 27/27/27 42/42/42 43/43/43
f 44/44/44 45/45/45 46/46/46
f 44/44/44 46/46/46 47/47/47
f 48/48/48 49/49/49 50/50/50
f 48/48/48 50/50/50 51/51/51
f 52/52/52 53/53/53 54/54/54
f 52/52/52 54/54/54 55/55/55
