v 0.906922 3.168610 1.246998
v 1.935802 3.168610 1.246998
v 1.935802 3.168610 0.979246
v 0.906922 3.168610 0.979246
v -0.452280 3.168610 1.246998
v -0.452280 3.168610 0.979246
v -1.481160 3.168610 1.246998
v -1.481160 3.168610 0.979245
v -0.452280 3.168610 0.464015
v -0.516310 3.168610 0.464015
v 0.906922 3.168610 0.464015
v 0.970952 3.168610 0.464015
v 3.087806 3.168610 2.193462
v 3.087806 3.168610 1.246999
v 1.935802 3.168610 2.193461
v 0.906922 3.168610 2.193461
v -0.452280 3.168610 2.193461
v -1.283240 3.168610 2.193461
v 1.935802 3.168610 3.524923
v 1.935802 3.168610 8.115284
v 3.087806 3.168610 8.115284
v 3.087806 3.168610 3.524924
v 0.906922 3.168610 3.524923
v 0.906922 3.168610 8.115284
v -0.452281 3.168610 3.524923
v -0.452281 3.168610 8.115284
v -1.283240 3.168610 3.524923
v -1.481161 3.168610 8.115284
v -2.496486 3.168610 2.193461
v -1.954209 3.168610 2.193461
v -1.954209 3.168610 1.246998
v -2.496485 3.168610 1.246998
v -2.496486 3.168610 8.115284
v -1.954210 3.168610 8.115284
v -1.954210 3.168610 3.524923
v -2.496486 3.168610 3.524923
v 1.935802 3.168610 2.464459
v 3.087806 3.168610 2.464459
v 1.935802 3.168610 3.253926
v 3.087806 3.168610 3.253926
v 0.906922 3.168610 2.464459
v 0.906922 3.168610 3.253926
v -0.452280 3.168610 2.464459
v -0.452280 3.168610 3.253926
v -1.283240 3.168610 2.464459
v -1.283240 3.168610 3.253925
v -1.954210 3.168610 3.253925
v -1.954209 3.168610 2.464459
vn 0.000000 1.000000 0.000000
vn 0.000000 1.000000 0.000000
vn 0.000000 1.000000 0.000000
vn 0.000000 1.000000 0.000000
vn 0.000000 1.000000 0.000000
vn 0.000000 1.000000 0.000000
vn 0.000000 1.000000 0.000000
vn 0.000000 1.000000 0.000000
vn 0.000000 1.000000 0.000000
vn 0.000000 1.000000 0.000000
vn 0.000000 1.000000 0.000000
vn 0.000000 1.000000 0.000000
vn 0.000000 1.000000 0.000000
vn 0.000000 1.000000 0.000000
vn 0.000000 1.000000 0.000000
vn 0.000000 1.000000 0.000000
vn 0.000000 1.000000 0.000000
vn 0.000000 1.000000 0.000000
vn 0.000000 1.000000 0.000000
vn 0.000000 1.000000 0.000000
vn 0.000000 1.000000 0.000000
vn 0.000000 1.000000 0.000000
vn 0.000000 1.000000 0.000000
vn 0.000000 1.000000 0.000000
vn 0.000000 1.000000 0.000000
vn 0.000000 1.000000 0.000000
vn 0.000000 1.000000 0.000000
vn 0.000000 1.000000 0.000000
vn 0.000000 1.000000 0.000000
vn 0.000000 1.000000 0.000000
vn 0.000000 1.000000 0.000000
vn 0.000000 1.000000 0.000000
vn 0.000000 1.000000 0.000000
vn 0.000000 1.000000 0.000000
vn 0.000000 1.000000 0.000000
vn 0.000000 1.000000 0.000000
vn 0.000000 1.000000 0.000000
vn 0.000000 1.000000 0.000000
vn 0.000000 1.000000 0.000000
vn 0.000000 1.000000 0.000000
vn 0.000000 1.000000 0.000000
vn 0.000000 1.000000 0.000000
vn 0.000000 1.000000 0.000000
vn 0.000000 1.000000 0.000000
vn 0.000000 1.000000 0.000000
vn 0.000000 1.000000 0.000000
vn 0.000000 1.000000 0.000000
vn 0.000000 1.000000 0.000000
vt 0.838938 0.290596
vt 0.838938 -0.061591
vt 0.889467 -0.061591
vt 0.889467 0.290596
vt 0.838938 0.755854
vt 0.889467 0.755854
vt 0.838938 1.108041
vt 0.889467 1.108041
vt 0.986697 0.755854
vt 0.986698 0.777771
vt 0.986697 0.290596
vt 0.986697 0.268679
vt 0.660328 -0.455924
vt 0.838938 -0.455924
vt 0.660328 -0.061591
vt 0.660328 0.290596
vt 0.660328 0.755854
vt 0.660328 1.040293
vt 0.409064 -0.061591
vt 0.017198 -0.061591
vt 0.017198 -0.455924
vt 0.409064 -0.455924
vt 0.409064 0.290596
vt 0.017198 0.290596
vt 0.409064 0.755854
vt 0.017198 0.755854
vt 0.409064 1.040293
vt 0.017198 1.108041
vt 0.660328 1.455589
vt 0.660328 1.269967
vt 0.838938 1.269967
vt 0.838938 1.455589
vt 0.017198 1.455589
vt 0.017198 1.269967
vt 0.409064 1.269967
vt 0.409064 1.455589
vt 0.609187 -0.061591
vt 0.609187 -0.455924
vt 0.460205 -0.061591
vt 0.460205 -0.455924
vt 0.609187 0.290596
vt 0.460205 0.290596
vt 0.609187 0.755854
vt 0.460205 0.755854
vt 0.609187 1.040293
vt 0.460205 1.040293
vt 0.460205 1.269967
vt 0.609187 1.269967
f 1/1/1 2/2/2 3/3/3
f 1/1/1 3/3/3 4/4/4
f 5/5/5 1/1/1 4/4/4
f 5/5/5 4/4/4 6/6/6
f 7/7/7 5/5/5 6/6/6
f 7/7/7 6/6/6 8/8/8
f 8/8/8 6/6/6 9/9/9
f 8/8/8 9/9/9 10/10/10
f 6/6/6 4/4/4 11/11/11
f 6/6/6 11/11/11 9/9/9
f 4/4/4 3/3/3 12/12/12
f 4/4/4 12/12/12 11/11/11
f 13/13/13 14/14/14 2/2/2
f 13/13/13 2/2/2 15/15/15
f 1/1/1 16/16/16 15/15/15
f 1/1/1 15/15/15 2/2/2
f 5/5/5 17/17/17 16/16/16
f 5/5/5 16/16/16 1/1/1
f 7/7/7 18/18/18 17/17/17
f 7/7/7 17/17/17 5/5/5
f 19/19/19 20/20/20 21/21/21
f 19/19/19 21/21/21 22/22/22
f 23/23/23 24/24/24 20/20/20
f 23/23/23 20/20/20 19/19/19
f 25/25/25 26/26/26 24/24/24
f 25/25/25 24/24/24 23/23/23
f 27/27/27 28/28/28 26/26/26
f 27/27/27 26/26/26 25/25/25
f 29/29/29 30/30/30 31/31/31
f 29/29/29 31/31/31 32/32/32
f 30/30/30 18/18/18 7/7/7
f 30/30/30 7/7/7 31/31/31
f 33/33/33 34/34/34 35/35/35
f 33/33/33 35/35/35 36/36/36
f 34/34/34 28/28/28 27/27/27
f 34/34/34 27/27/27 35/35/35
f 15/15/15 37/37/37 38/38/38
f 15/15/15 38/38/38 13/13/13
f 37/37/37 39/39/39 40/40/40
f 37/37/37 40/40/40 38/38/38
f 39/39/39 19/19/19 22/22/22
f 39/39/39 22/22/22 40/40/40
f 16/16/16 41/41/41 37/37/37
f 16/16/16 37/37/37 15/15/15
f 41/41/41 42/42/42 39/39/39
f 41/41/41 39/39/39 37/37/37
f 42/42/42 23/23/23 19/19/19
f 42/42/42 19/19/19 39/39/39
f 17/17/17 43/43/43 41/41/41
f 17/17/17 41/41/41 16/16/16
f 43/43/43 44/44/44 42/42/42
f 43/43/43 42/42/42 41/41/41
f 44/44/44 25/25/25 23/23/23
f 44/44/44 23/23/23 42/42/42
f 18/18/18 45/45/45 43/43/43
f 18/18/18 43/43/43 17/17/17
f 45/45/45 46/46/46 44/44/44
f 45/45/45 44/44/44 43/43/43
f 46/46/46 27/27/27 25/25/25
f 46/46/46 25/25/25 44/44/44
f 27/27/27 46/46/46 47/47/47
f 27/27/27 47/47/47 35/35/35
f 46/46/46 45/45/45 48/48/48
f 46/46/46 48/48/48 47/47/47
f 45/45/45 18/18/18 30/30/30
f 45/45/45 30/30/30 48/48/48
