v 1.411070 2.398712 0.739173
v 1.411929 2.398712 0.739153
v 1.411929 2.080768 0.739153
v 1.411070 2.080768 0.739173
v 1.411070 2.398712 0.739173
v 1.410659 2.398712 0.739927
v 1.410659 2.080768 0.739927
v 1.411070 2.080768 0.739173
v 1.411106 2.398712 0.740661
v 1.411106 2.080768 0.740661
v 1.411964 2.398712 0.740640
v 1.411964 2.080768 0.740640
v 1.412376 2.398712 0.739886
v 1.412376 2.080768 0.739886
v 1.411929 2.398712 0.739153
v 1.411929 2.080768 0.739153
vn -0.023700 0.000000 -0.999700
vn -0.023700 0.000000 -0.999700
vn -0.023700 0.000000 -0.999700
vn -0.023700 0.000000 -0.999700
vn 0.877700 0.000000 0.479200
vn 0.999700 0.000000 -0.023800
vn 0.999700 0.000000 -0.023800
vn 0.877700 0.000000 0.479200
vn 0.479300 0.000000 -0.877700
vn 0.479300 0.000000 -0.877700
vn -0.520400 0.000000 -0.853900
vn -0.520400 0.000000 -0.853900
vn -0.999700 0.000000 0.023800
vn -0.999700 0.000000 0.023800
vn -0.853900 0.000000 0.520500
vn -0.853900 0.000000 0.520500
vt 0.000000 0.000000
vt 0.000000 0.000000
vt 0.000000 0.000000
vt 0.000000 0.000000
vt 0.000000 0.000000
vt 0.000000 0.000000
vt 0.000000 0.000000
vt 0.000000 0.000000
vt 0.000000 0.000000
vt 0.000000 0.000000
vt 0.000000 0.000000
vt 0.000000 0.000000
vt 0.000000 0.000000
vt 0.000000 0.000000
vt 0.000000 0.000000
vt 0.000000 0.000000
f 1/1/1 2/2/2 3/3/3
f 1/1/1 3/3/3 4/4/4
f 5/5/5 6/6/6 7/7/7
f 5/5/5 7/7/7 8/8/8
f 6/6/6 9/9/9 10/10/10
f 6/6/6 10/10/10 7/7/7
f 9/9/9 11/11/11 12/12/12
f 9/9/9 12/12/12 10/10/10
f 11/11/11 13/13/13 14/14/14
f 11/11/11 14/14/14 12/12/12
f 13/13/13 15/15/15 16/16/16
f 13/13/13 16/16/16 14/14/14
