v -2.292848 0.931486 3.852725
v -2.206671 0.931486 3.852725
v -2.206671 1.056252 3.848844
v -2.292848 1.056252 3.848844
v -2.206671 0.932023 3.869990
v -2.292848 0.932023 3.869990
v -2.292848 1.056789 3.866109
v -2.206671 1.056789 3.866109
v -2.205845 0.931526 3.853990
v -2.206671 0.931486 3.852725
v -2.292848 0.931486 3.852725
v -2.292848 0.931526 3.853990
v -2.292848 0.931984 3.868725
v -2.205845 0.931984 3.868725
v -2.292848 0.932023 3.869990
v -2.206671 0.932023 3.869990
v -2.292848 0.932023 3.869990
v -2.292848 0.931984 3.868725
v -2.292848 1.056750 3.864844
v -2.292848 1.056789 3.866109
v -2.292848 0.931526 3.853990
v -2.292848 1.056291 3.850109
v -2.292848 0.931486 3.852725
v -2.292848 1.056252 3.848844
v -2.206671 0.931486 3.852725
v -2.205845 0.931526 3.853990
v -2.205845 1.056291 3.850109
v -2.206671 1.056252 3.848844
v -2.205845 0.931526 3.853990
v -2.205845 0.931984 3.868725
v -2.205845 1.056750 3.864844
v -2.205845 1.056291 3.850109
v -2.205845 0.931984 3.868725
v -2.206671 0.932023 3.869990
v -2.206671 1.056789 3.866109
v -2.205845 1.056750 3.864844
v -2.292848 1.056789 3.866109
v -2.292848 1.056750 3.864844
v -2.205845 1.056750 3.864844
v -2.206671 1.056789 3.866109
v -2.292848 1.056291 3.850109
v -2.205845 1.056291 3.850109
v -2.292848 1.056252 3.848844
v -2.206671 1.056252 3.848844
vn 0.000000 0.031100 0.999500
vn 0.000000 0.031100 0.999500
vn 0.000000 0.031100 0.999500
vn 0.000000 0.031100 0.999500
vn 0.000000 -0.031100 -0.999500
vn 0.000000 -0.031100 -0.999500
vn 0.000000 -0.031100 -0.999500
vn 0.000000 -0.031100 -0.999500
vn 0.000000 0.999500 -0.031100
vn 0.000000 0.999500 -0.031100
vn 0.000000 0.999500 -0.031100
vn 0.000000 0.999500 -0.031100
vn 0.000000 0.999500 -0.031100
vn 0.000000 0.999500 -0.031100
vn 0.000000 0.999500 -0.031100
vn 0.000000 0.999500 -0.031100
vn 1.000000 -0.000000 0.000000
vn 1.000000 -0.000000 0.000000
vn 1.000000 -0.000000 0.000000
vn 1.000000 -0.000000 0.000000
vn 1.000000 -0.000000 0.000000
vn 1.000000 -0.000000 0.000000
vn 1.000000 -0.000000 0.000000
vn 1.000000 -0.000000 0.000000
vn -0.837500 0.017000 0.546200
vn -0.837500 0.017000 0.546200
vn -0.837500 0.017000 0.546200
vn -0.837500 0.017000 0.546200
vn -1.000000 -0.000000 0.000000
vn -1.000000 -0.000000 0.000000
vn -1.000000 -0.000000 0.000000
vn -1.000000 -0.000000 0.000000
vn -0.837500 -0.017000 -0.546200
vn -0.837500 -0.017000 -0.546200
vn -0.837500 -0.017000 -0.546200
vn -0.837500 -0.017000 -0.546200
vn 0.000000 -0.999500 0.031100
vn 0.000000 -0.999500 0.031100
vn 0.000000 -0.999500 0.031100
vn 0.000000 -0.999500 0.031100
vn 0.000000 -0.999500 0.031100
vn 0.000000 -0.999500 0.031100
vn 0.000000 -0.999500 0.031100
vn 0.000000 -0.999500 0.031100
vt 0.776053 0.002481
vt 0.775166 0.002481
vt 0.775166 0.600226
vt 0.776053 0.600226
vt 0.732067 0.002481
vt 0.730996 0.002481
vt 0.730996 0.600226
vt 0.732067 0.600226
vt 0.987148 0.008603
vt 0.989829 0.008603
vt 0.989829 0.127444
vt 0.987148 0.127444
vt 0.946689 0.127444
vt 0.946689 0.008603
vt 0.943949 0.127444
vt 0.943949 0.008603
vt 0.943949 0.127444
vt 0.946689 0.127444
vt 0.946689 0.256778
vt 0.943949 0.256778
vt 0.987148 0.127444
vt 0.987148 0.256778
vt 0.989829 0.127444
vt 0.989829 0.256778
vt 0.775166 0.002481
vt 0.774455 0.002481
vt 0.774455 0.600226
vt 0.775166 0.600226
vt 0.774455 0.002481
vt 0.734082 0.002481
vt 0.734082 0.600226
vt 0.774455 0.600226
vt 0.734082 0.002481
vt 0.732067 0.002481
vt 0.732067 0.600226
vt 0.734082 0.600226
vt 0.943949 0.256778
vt 0.946689 0.256778
vt 0.946689 0.375415
vt 0.943949 0.375415
vt 0.987148 0.256778
vt 0.987148 0.375415
vt 0.989829 0.256778
vt 0.989829 0.375415
f 1/1/1 2/2/2 3/3/3
f 1/1/1 3/3/3 4/4/4
f 5/5/5 6/6/6 7/7/7
f 5/5/5 7/7/7 8/8/8
f 9/9/9 10/10/10 11/11/11
f 9/9/9 11/11/11 12/12/12
f 12/12/12 13/13/13 14/14/14
f 12/12/12 14/14/14 9/9/9
f 13/13/13 15/15/15 16/16/16
f 13/13/13 16/16/16 14/14/14
f 17/17/17 18/18/18 19/19/19
f 17/17/17 19/19/19 20/20/20
f 18/18/18 21/21/21 22/22/22
f 18/18/18 22/22/22 19/19/19
f 21/21/21 23/23/23 24/24/24
f 21/21/21 24/24/24 22/22/22
f 25/25/25 26/26/26 27/27/27
f 25/25/25 27/27/27 28/28/28
f 29/29/29 30/30/30 31/31/31
f 29/29/29 31/31/31 32/32/32
f 33/33/33 34/34/34 35/35/35
f 33/33/33 35/35/35 36/36/36
f 37/37/37 38/38/38 39/39/39
f 37/37/37 39/39/39 40/40/40
f 38/38/38 41/41/41 42/42/42
f 38/38/38 42/42/42 39/39/39
f 41/41/41 43/43/43 44/44/44
f 41/41/41 44/44/44 42/42/42
