v -2.316215 0.661705 3.658978
v -2.186996 0.661705 3.658978
v -2.186996 0.852368 3.655823
v -2.316215 0.852368 3.655823
v -2.186996 0.662003 3.676950
v -2.316215 0.662003 3.676950
v -2.316215 0.852665 3.673795
v -2.186996 0.852665 3.673795
v -2.186170 0.661726 3.660244
v -2.186996 0.661705 3.658978
v -2.316215 0.661705 3.658978
v -2.316215 0.661726 3.660244
v -2.316215 0.661982 3.675684
v -2.186170 0.661982 3.675684
v -2.316215 0.662003 3.676950
v -2.186996 0.662003 3.676950
v -2.316215 0.662003 3.676950
v -2.316215 0.661982 3.675684
v -2.316215 0.852644 3.672529
v -2.316215 0.852665 3.673795
v -2.316215 0.661726 3.660244
v -2.316215 0.852389 3.657089
v -2.316215 0.661705 3.658978
v -2.316215 0.852368 3.655823
v -2.186996 0.661705 3.658978
v -2.186170 0.661726 3.660244
v -2.186170 0.852389 3.657089
v -2.186996 0.852368 3.655823
v -2.186170 0.661726 3.660244
v -2.186170 0.661982 3.675684
v -2.186170 0.852644 3.672529
v -2.186170 0.852389 3.657089
v -2.186170 0.661982 3.675684
v -2.186996 0.662003 3.676950
v -2.186996 0.852665 3.673795
v -2.186170 0.852644 3.672529
v -2.316215 0.852665 3.673795
v -2.316215 0.852644 3.672529
v -2.186170 0.852644 3.672529
v -2.186996 0.852665 3.673795
v -2.316215 0.852389 3.657089
v -2.186170 0.852389 3.657089
v -2.316215 0.852389 3.657089
v -2.316215 0.852368 3.655823
v -2.186996 0.852368 3.655823
v -2.186170 0.852389 3.657089
vn 0.000000 0.016500 0.999900
vn 0.000000 0.016500 0.999900
vn 0.000000 0.016500 0.999900
vn 0.000000 0.016500 0.999900
vn 0.000000 -0.016500 -0.999900
vn 0.000000 -0.016500 -0.999900
vn 0.000000 -0.016500 -0.999900
vn 0.000000 -0.016500 -0.999900
vn 0.000000 0.999900 -0.016500
vn 0.000000 0.999900 -0.016500
vn 0.000000 0.999900 -0.016500
vn 0.000000 0.999900 -0.016500
vn 0.000000 0.999900 -0.016500
vn 0.000000 0.999900 -0.016500
vn 0.000000 0.999900 -0.016500
vn 0.000000 0.999900 -0.016500
vn 1.000000 0.000000 0.000000
vn 1.000000 0.000000 0.000000
vn 1.000000 0.000000 0.000000
vn 1.000000 0.000000 0.000000
vn 1.000000 0.000000 0.000000
vn 1.000000 0.000000 0.000000
vn 1.000000 0.000000 0.000000
vn 1.000000 0.000000 0.000000
vn -0.837600 0.009000 0.546200
vn -0.837600 0.009000 0.546200
vn -0.837600 0.009000 0.546200
vn -0.837600 0.009000 0.546200
vn -1.000000 0.000000 0.000000
vn -1.000000 0.000000 0.000000
vn -1.000000 0.000000 0.000000
vn -1.000000 0.000000 0.000000
vn -0.837400 -0.009000 -0.546500
vn -0.837400 -0.009000 -0.546500
vn -0.837400 -0.009000 -0.546500
vn -0.837400 -0.009000 -0.546500
vn 0.000000 -0.999900 0.016500
vn 0.000000 -0.999900 0.016500
vn 0.000000 -0.999900 0.016500
vn 0.000000 -0.999900 0.016500
vn 0.000000 -0.999900 0.016500
vn 0.000000 -0.999900 0.016500
vn 0.000000 -0.999900 0.016600
vn 0.000000 -0.999900 0.016600
vn 0.000000 -0.999900 0.016600
vn 0.000000 -0.999900 0.016600
vt 0.398537 0.002481
vt 0.396739 0.002481
vt 0.396739 0.793820
vt 0.398537 0.793820
vt 0.367459 0.002481
vt 0.364841 0.002481
vt 0.364841 0.793820
vt 0.367459 0.793820
vt 0.987148 0.008603
vt 0.989829 0.008603
vt 0.989829 0.127444
vt 0.987148 0.127444
vt 0.946689 0.127444
vt 0.946689 0.008603
vt 0.943949 0.127444
vt 0.943949 0.008603
vt 0.943949 0.127444
vt 0.946689 0.127444
vt 0.946689 0.256778
vt 0.943949 0.256778
vt 0.987148 0.127444
vt 0.987148 0.256778
vt 0.989829 0.127444
vt 0.989829 0.256778
vt 0.396739 0.002481
vt 0.393999 0.002481
vt 0.393999 0.793820
vt 0.396739 0.793820
vt 0.393999 0.002481
vt 0.368945 0.002481
vt 0.368945 0.793820
vt 0.393999 0.793820
vt 0.368945 0.002481
vt 0.367459 0.002481
vt 0.367459 0.793820
vt 0.368945 0.793820
vt 0.943949 0.256778
vt 0.946689 0.256778
vt 0.946689 0.375415
vt 0.943949 0.375415
vt 0.987148 0.256778
vt 0.987148 0.375415
vt 0.987148 0.256778
vt 0.989829 0.256778
vt 0.989829 0.375415
vt 0.987148 0.375415
f 1/1/1 2/2/2 3/3/3
f 1/1/1 3/3/3 4/4/4
f 5/5/5 6/6/6 7/7/7
f 5/5/5 7/7/7 8/8/8
f 9/9/9 10/10/10 11/11/11
f 9/9/9 11/11/11 12/12/12
f 12/12/12 13/13/13 14/14/14
f 12/12/12 14/14/14 9/9/9
f 13/13/13 15/15/15 16/16/16
f 13/13/13 16/16/16 14/14/14
f 17/17/17 18/18/18 19/19/19
f 17/17/17 19/19/19 20/20/20
f 18/18/18 21/21/21 22/22/22
f 18/18/18 22/22/22 19/19/19
f 21/21/21 23/23/23 24/24/24
f 21/21/21 24/24/24 22/22/22
f 25/25/25 26/26/26 27/27/27
f 25/25/25 27/27/27 28/28/28
f 29/29/29 30/30/30 31/31/31
f 29/29/29 31/31/31 32/32/32
f 33/33/33 34/34/34 35/35/35
f 33/33/33 35/35/35 36/36/36
f 37/37/37 38/38/38 39/39/39
f 37/37/37 39/39/39 40/40/40
f 38/38/38 41/41/41 42/42/42
f 38/38/38 42/42/42 39/39/39
f 43/43/43 44/44/44 45/45/45
f 43/43/43 45/45/45 46/46/46
