v -2.329537 0.935792 4.136231
v -2.193145 0.935792 4.136231
v -2.193145 1.149457 4.161995
v -2.329537 1.149457 4.161995
v -2.193145 0.932802 4.161033
v -2.329537 0.932802 4.161033
v -2.329537 1.146466 4.186797
v -2.193145 1.146466 4.186797
v -2.192319 0.935641 4.137488
v -2.193145 0.935792 4.136231
v -2.329537 0.935792 4.136231
v -2.329537 0.935641 4.137488
v -2.329537 0.932953 4.159776
v -2.192319 0.932953 4.159776
v -2.329537 0.932802 4.161033
v -2.193145 0.932802 4.161033
v -2.329537 0.932802 4.161033
v -2.329537 0.932953 4.159776
v -2.329537 1.146618 4.185540
v -2.329537 1.146466 4.186797
v -2.329537 0.935641 4.137488
v -2.329537 1.149305 4.163253
v -2.329537 0.935792 4.136231
v -2.329537 1.149457 4.161995
v -2.193145 0.935792 4.136231
v -2.192319 0.935641 4.137488
v -2.192319 1.149305 4.163253
v -2.193145 1.149457 4.161995
v -2.192319 0.935641 4.137488
v -2.192319 0.932953 4.159776
v -2.192319 1.146618 4.185540
v -2.192319 1.149305 4.163253
v -2.192319 0.932953 4.159776
v -2.193145 0.932802 4.161033
v -2.193145 1.146466 4.186797
v -2.192319 1.146618 4.185540
v -2.329537 1.146466 4.186797
v -2.329537 1.146618 4.185540
v -2.192319 1.146618 4.185540
v -2.193145 1.146466 4.186797
v -2.329537 1.146618 4.185540
v -2.329537 1.149305 4.163253
v -2.192319 1.149305 4.163253
v -2.192319 1.146618 4.185540
v -2.329537 1.149457 4.161995
v -2.193145 1.149457 4.161995
vn 0.000000 -0.119700 0.992800
vn 0.000000 -0.119700 0.992800
vn 0.000000 -0.119700 0.992800
vn 0.000000 -0.119700 0.992800
vn 0.000000 0.119700 -0.992800
vn 0.000000 0.119700 -0.992800
vn 0.000000 0.119700 -0.992800
vn 0.000000 0.119700 -0.992800
vn 0.000000 0.992800 0.119700
vn 0.000000 0.992800 0.119700
vn 0.000000 0.992800 0.119700
vn 0.000000 0.992800 0.119700
vn 0.000000 0.992800 0.119700
vn 0.000000 0.992800 0.119700
vn 0.000000 0.992800 0.119700
vn 0.000000 0.992800 0.119700
vn 1.000000 0.000000 0.000000
vn 1.000000 0.000000 0.000000
vn 1.000000 0.000000 0.000000
vn 1.000000 0.000000 0.000000
vn 1.000000 0.000000 0.000000
vn 1.000000 0.000000 0.000000
vn 1.000000 0.000000 0.000000
vn 1.000000 0.000000 0.000000
vn -0.837400 -0.065400 0.542600
vn -0.837400 -0.065400 0.542600
vn -0.837400 -0.065400 0.542600
vn -0.837400 -0.065400 0.542600
vn -1.000000 0.000000 0.000000
vn -1.000000 0.000000 0.000000
vn -1.000000 0.000000 0.000000
vn -1.000000 0.000000 0.000000
vn -0.837500 0.065400 -0.542500
vn -0.837500 0.065400 -0.542500
vn -0.837500 0.065400 -0.542500
vn -0.837500 0.065400 -0.542500
vn 0.000000 -0.992800 -0.119600
vn 0.000000 -0.992800 -0.119600
vn 0.000000 -0.992800 -0.119600
vn 0.000000 -0.992800 -0.119600
vn 0.000000 -0.992800 -0.119700
vn 0.000000 -0.992800 -0.119700
vn 0.000000 -0.992800 -0.119700
vn 0.000000 -0.992800 -0.119700
vn 0.000000 -0.992800 -0.119700
vn 0.000000 -0.992800 -0.119700
vt 0.134857 0.002481
vt 0.134425 0.002481
vt 0.134425 0.798593
vt 0.134857 0.798593
vt 0.085387 0.002481
vt 0.083963 0.002481
vt 0.083963 0.798593
vt 0.085387 0.798593
vt 0.987148 0.008603
vt 0.989829 0.008603
vt 0.989829 0.127444
vt 0.987148 0.127444
vt 0.946689 0.127444
vt 0.946689 0.008603
vt 0.943949 0.127444
vt 0.943949 0.008603
vt 0.943949 0.127444
vt 0.946689 0.127444
vt 0.946689 0.256778
vt 0.943949 0.256778
vt 0.987148 0.127444
vt 0.987148 0.256778
vt 0.989829 0.127444
vt 0.989829 0.256778
vt 0.134425 0.002481
vt 0.132843 0.002481
vt 0.132843 0.798593
vt 0.134425 0.798593
vt 0.132843 0.002481
vt 0.086771 0.002481
vt 0.086771 0.798593
vt 0.132843 0.798593
vt 0.086771 0.002481
vt 0.085387 0.002481
vt 0.085387 0.798593
vt 0.086771 0.798593
vt 0.943949 0.256778
vt 0.946689 0.256778
vt 0.946689 0.375415
vt 0.943949 0.375415
vt 0.946689 0.256778
vt 0.987148 0.256778
vt 0.987148 0.375415
vt 0.946689 0.375415
vt 0.989829 0.256778
vt 0.989829 0.375415
f 1/1/1 2/2/2 3/3/3
f 1/1/1 3/3/3 4/4/4
f 5/5/5 6/6/6 7/7/7
f 5/5/5 7/7/7 8/8/8
f 9/9/9 10/10/10 11/11/11
f 9/9/9 11/11/11 12/12/12
f 12/12/12 13/13/13 14/14/14
f 12/12/12 14/14/14 9/9/9
f 13/13/13 15/15/15 16/16/16
f 13/13/13 16/16/16 14/14/14
f 17/17/17 18/18/18 19/19/19
f 17/17/17 19/19/19 20/20/20
f 18/18/18 21/21/21 22/22/22
f 18/18/18 22/22/22 19/19/19
f 21/21/21 23/23/23 24/24/24
f 21/21/21 24/24/24 22/22/22
f 25/25/25 26/26/26 27/27/27
f 25/25/25 27/27/27 28/28/28
f 29/29/29 30/30/30 31/31/31
f 29/29/29 31/31/31 32/32/32
f 33/33/33 34/34/34 35/35/35
f 33/33/33 35/35/35 36/36/36
f 37/37/37 38/38/38 39/39/39
f 37/37/37 39/39/39 40/40/40
f 41/41/41 42/42/42 43/43/43
f 41/41/41 43/43/43 44/44/44
f 42/42/42 45/45/45 46/46/46
f 42/42/42 46/46/46 43/43/43
