v -0.884019 2.780501 0.708358
v -0.763471 2.780501 0.642863
v -0.758050 2.782852 0.652841
v -0.878598 2.782852 0.718335
v -1.039056 2.782852 0.805513
v -1.044477 2.780501 0.795535
v -1.049104 2.774134 0.787019
v -0.888646 2.774134 0.699841
v -0.768098 2.774134 0.634347
v -0.722742 2.780501 0.620735
v -0.727369 2.774134 0.612218
v -0.726550 2.774134 0.611774
v -0.721923 2.780501 0.620290
v -0.716502 2.782852 0.630268
v -0.717321 2.782852 0.630713
v -0.891686 2.764442 0.694247
v -1.052144 2.764442 0.781424
v -1.049104 2.774134 0.787019
v -0.888646 2.774134 0.699841
v -0.768098 2.774134 0.634347
v -0.771137 2.764442 0.628752
v -0.772260 2.753086 0.626686
v -0.892808 2.753086 0.692180
v -1.053267 2.753086 0.779358
v -0.730409 2.764442 0.606624
v -0.727369 2.774134 0.612218
v -0.726550 2.774134 0.611774
v -0.729590 2.764442 0.606179
v -0.730712 2.753086 0.604113
v -0.731531 2.753086 0.604558
v -0.891686 2.741731 0.694247
v -1.052144 2.741731 0.781424
v -0.771137 2.741731 0.628752
v -0.768098 2.732038 0.634347
v -0.888646 2.732038 0.699841
v -1.049104 2.732038 0.787019
v -0.730409 2.741731 0.606624
v -0.729590 2.741731 0.606179
v -0.726550 2.732038 0.611774
v -0.727369 2.732038 0.612218
v -0.884019 2.725672 0.708358
v -1.044477 2.725672 0.795535
v -1.039056 2.723320 0.805513
v -0.878598 2.723320 0.718335
v -0.758050 2.723320 0.652841
v -0.763471 2.725672 0.642863
v -0.768098 2.732038 0.634347
v -0.888646 2.732038 0.699841
v -1.049104 2.732038 0.787019
v -0.722742 2.725672 0.620735
v -0.717321 2.723320 0.630713
v -0.716502 2.723320 0.630268
v -0.721923 2.725672 0.620290
v -0.726550 2.732038 0.611774
v -0.727369 2.732038 0.612218
v -0.873177 2.725672 0.728313
v -1.033635 2.725672 0.815491
v -1.039056 2.723320 0.805513
v -0.878598 2.723320 0.718335
v -0.758050 2.723320 0.652841
v -0.752629 2.725672 0.662819
v -0.748002 2.732038 0.671335
v -0.868550 2.732038 0.736830
v -1.029008 2.732038 0.824007
v -0.711900 2.725672 0.640691
v -0.717321 2.723320 0.630713
v -0.716502 2.723320 0.630268
v -0.711081 2.725672 0.640246
v -0.706454 2.732038 0.648762
v -0.707273 2.732038 0.649207
v -0.865511 2.741731 0.742424
v -1.025969 2.741731 0.829602
v -0.744963 2.741731 0.676930
v -0.743840 2.753086 0.678996
v -0.864388 2.753086 0.744490
v -1.024846 2.753086 0.831668
v -0.704234 2.741731 0.654801
v -0.703415 2.741731 0.654357
v -0.702292 2.753086 0.656423
v -0.703111 2.753086 0.656868
v -0.865511 2.764442 0.742424
v -1.025969 2.764442 0.829602
v -0.744963 2.764442 0.676930
v -0.748002 2.774134 0.671335
v -0.868550 2.774134 0.736830
v -1.029008 2.774134 0.824007
v -0.704234 2.764442 0.654801
v -0.703415 2.764442 0.654357
v -0.706454 2.774134 0.648762
v -0.707273 2.774134 0.649207
v -0.873177 2.780501 0.728313
v -0.752629 2.780501 0.662819
v -0.758050 2.782852 0.652841
v -0.878598 2.782852 0.718335
v -1.039056 2.782852 0.805513
v -1.033635 2.780501 0.815491
v -0.711900 2.780501 0.640691
v -0.711081 2.780501 0.640246
v -0.716502 2.782852 0.630268
v -0.717321 2.782852 0.630713
v -1.067976 2.780501 0.808302
v -1.062556 2.782852 0.818280
v -1.183104 2.782852 0.883775
v -1.188525 2.780500 0.873797
v -1.193152 2.774134 0.865280
v -1.072604 2.774134 0.799786
v -0.912145 2.774134 0.712608
v -0.907518 2.780501 0.721125
v -0.902097 2.782852 0.731103
v -1.229254 2.780500 0.895925
v -1.233881 2.774134 0.887408
v -1.223833 2.782852 0.905903
v -1.224651 2.782852 0.906348
v -1.230072 2.780500 0.896370
v -1.234699 2.774134 0.887853
v -1.075643 2.764442 0.794192
v -1.072604 2.774134 0.799786
v -0.912145 2.774134 0.712608
v -0.915185 2.764442 0.707014
v -0.916308 2.753086 0.704948
v -1.076766 2.753086 0.792125
v -1.197314 2.753086 0.857620
v -1.196191 2.764442 0.859686
v -1.193152 2.774134 0.865280
v -1.236920 2.764442 0.881814
v -1.233881 2.774134 0.887408
v -1.238043 2.753086 0.879748
v -1.238862 2.753086 0.880193
v -1.237739 2.764442 0.882259
v -1.234699 2.774134 0.887853
v -1.075643 2.741731 0.794192
v -0.915185 2.741731 0.707014
v -0.912145 2.732038 0.712608
v -1.072604 2.732038 0.799786
v -1.193152 2.732038 0.865280
v -1.196191 2.741731 0.859686
v -1.236920 2.741731 0.881814
v -1.233881 2.732038 0.887408
v -1.234699 2.732038 0.887853
v -1.237739 2.741731 0.882259
v -1.067976 2.725672 0.808302
v -1.062556 2.723320 0.818280
v -0.902097 2.723320 0.731103
v -0.907518 2.725672 0.721125
v -0.912145 2.732038 0.712608
v -1.072604 2.732038 0.799786
v -1.193152 2.732038 0.865280
v -1.188525 2.725672 0.873797
v -1.183104 2.723320 0.883775
v -1.229254 2.725672 0.895925
v -1.223833 2.723320 0.905903
v -1.233881 2.732038 0.887408
v -1.234699 2.732038 0.887853
v -1.230072 2.725672 0.896370
v -1.224651 2.723320 0.906348
v -1.057135 2.725672 0.828258
v -1.062556 2.723320 0.818280
v -0.902097 2.723320 0.731103
v -0.896676 2.725672 0.741080
v -0.892049 2.732038 0.749597
v -1.052507 2.732038 0.836775
v -1.173056 2.732038 0.902269
v -1.177683 2.725672 0.893752
v -1.183104 2.723320 0.883775
v -1.218412 2.725672 0.915881
v -1.223833 2.723320 0.905903
v -1.213784 2.732038 0.924397
v -1.214603 2.732038 0.924842
v -1.219230 2.725672 0.916325
v -1.224651 2.723320 0.906348
v -1.049468 2.741731 0.842369
v -0.889010 2.741731 0.755191
v -0.887887 2.753086 0.757258
v -1.048345 2.753086 0.844435
v -1.168894 2.753086 0.909930
v -1.170016 2.741731 0.907863
v -1.210745 2.741731 0.929991
v -1.209622 2.753086 0.932058
v -1.210441 2.753086 0.932503
v -1.211564 2.741731 0.930436
v -1.049468 2.764442 0.842369
v -0.889010 2.764442 0.755191
v -0.892049 2.774134 0.749597
v -1.052507 2.774134 0.836775
v -1.173056 2.774134 0.902269
v -1.170016 2.764442 0.907863
v -1.210745 2.764442 0.929991
v -1.213784 2.774134 0.924397
v -1.214603 2.774134 0.924842
v -1.211564 2.764442 0.930436
v -1.057135 2.780501 0.828258
v -1.062556 2.782852 0.818280
v -1.183104 2.782852 0.883775
v -1.177683 2.780500 0.893752
v -0.896676 2.780501 0.741080
v -0.902097 2.782852 0.731103
v -1.218412 2.780500 0.915881
v -1.223833 2.782852 0.905903
v -1.224651 2.782852 0.906348
v -1.219230 2.780500 0.916325
vn 0.182700 -0.923900 0.336300
vn 0.182700 -0.923900 0.336300
vn 0.096800 -0.979200 0.178200
vn 0.096800 -0.979200 0.178200
vn 0.096800 -0.979200 0.178200
vn 0.182700 -0.923900 0.336300
vn 0.262100 -0.835800 0.482400
vn 0.262100 -0.835800 0.482400
vn 0.262100 -0.835800 0.482400
vn 0.182700 -0.923900 0.336300
vn 0.262100 -0.835800 0.482400
vn 0.262100 -0.835800 0.482400
vn 0.182700 -0.923900 0.336300
vn 0.096800 -0.979200 0.178200
vn 0.096800 -0.979200 0.178200
vn -0.441100 0.382700 -0.811800
vn -0.441100 0.382700 -0.811800
vn -0.399000 0.549000 -0.734400
vn -0.399000 0.549000 -0.734400
vn -0.399000 0.549000 -0.734400
vn -0.441100 0.382700 -0.811800
vn -0.477400 0.000000 -0.878700
vn -0.477400 0.000000 -0.878700
vn -0.477400 0.000000 -0.878700
vn -0.441100 0.382700 -0.811800
vn -0.399000 0.549000 -0.734400
vn -0.399000 0.549000 -0.734400
vn -0.441100 0.382700 -0.811800
vn -0.477400 0.000000 -0.878700
vn -0.477400 0.000000 -0.878700
vn -0.441100 -0.382700 -0.811800
vn -0.441100 -0.382700 -0.811800
vn -0.441100 -0.382700 -0.811800
vn -0.399000 -0.549000 -0.734400
vn -0.399000 -0.549000 -0.734400
vn -0.399000 -0.549000 -0.734400
vn -0.441100 -0.382700 -0.811800
vn -0.441100 -0.382700 -0.811800
vn -0.399000 -0.549000 -0.734400
vn -0.399000 -0.549000 -0.734400
vn 0.182700 0.923900 0.336300
vn 0.182700 0.923900 0.336300
vn 0.096800 0.979200 0.178200
vn 0.096800 0.979200 0.178200
vn 0.096800 0.979200 0.178200
vn 0.182700 0.923900 0.336300
vn 0.262100 0.835800 0.482400
vn 0.262100 0.835800 0.482400
vn 0.262100 0.835800 0.482400
vn 0.182700 0.923900 0.336300
vn 0.096800 0.979200 0.178200
vn 0.096800 0.979200 0.178300
vn 0.182700 0.923900 0.336300
vn 0.262100 0.835800 0.482500
vn 0.262100 0.835800 0.482400
vn 0.182700 -0.923900 0.336300
vn 0.182700 -0.923900 0.336300
vn 0.096800 -0.979200 0.178200
vn 0.096800 -0.979200 0.178200
vn 0.096800 -0.979200 0.178200
vn 0.182700 -0.923900 0.336300
vn 0.337600 -0.707100 0.621300
vn 0.337600 -0.707100 0.621300
vn 0.337600 -0.707100 0.621300
vn 0.182700 -0.923900 0.336300
vn 0.096800 -0.979200 0.178300
vn 0.096800 -0.979200 0.178300
vn 0.182700 -0.923900 0.336300
vn 0.337600 -0.707100 0.621400
vn 0.337500 -0.707100 0.621300
vn 0.441100 -0.382700 0.811800
vn 0.441100 -0.382700 0.811800
vn 0.441100 -0.382700 0.811800
vn 0.477400 0.000000 0.878700
vn 0.477400 0.000000 0.878700
vn 0.477400 0.000000 0.878700
vn 0.441000 -0.382700 0.811800
vn 0.441000 -0.382700 0.811800
vn 0.477400 0.000000 0.878700
vn 0.477400 0.000000 0.878700
vn 0.441100 0.382700 0.811800
vn 0.441100 0.382700 0.811800
vn 0.441100 0.382700 0.811800
vn 0.337600 0.707100 0.621300
vn 0.337600 0.707100 0.621300
vn 0.337600 0.707100 0.621300
vn 0.441100 0.382700 0.811800
vn 0.441100 0.382700 0.811800
vn 0.337600 0.707100 0.621300
vn 0.337600 0.707100 0.621300
vn 0.182700 0.923900 0.336300
vn 0.182700 0.923900 0.336300
vn 0.096800 0.979200 0.178200
vn 0.096800 0.979200 0.178200
vn 0.096800 0.979200 0.178200
vn 0.182700 0.923900 0.336300
vn 0.182700 0.923900 0.336300
vn 0.182700 0.923900 0.336300
vn 0.096800 0.979200 0.178200
vn 0.096800 0.979200 0.178200
vn 0.182700 -0.923900 0.336300
vn 0.096800 -0.979200 0.178200
vn 0.096800 -0.979200 0.178200
vn 0.182700 -0.923900 0.336300
vn 0.262100 -0.835800 0.482400
vn 0.262100 -0.835800 0.482400
vn 0.262100 -0.835800 0.482400
vn 0.182700 -0.923900 0.336300
vn 0.096800 -0.979200 0.178200
vn 0.182700 -0.923900 0.336300
vn 0.262100 -0.835800 0.482400
vn 0.096800 -0.979200 0.178200
vn 0.096800 -0.979200 0.178200
vn 0.182700 -0.923900 0.336300
vn 0.262200 -0.835800 0.482400
vn -0.441100 0.382700 -0.811800
vn -0.399000 0.549000 -0.734400
vn -0.399000 0.549000 -0.734400
vn -0.441100 0.382700 -0.811800
vn -0.477400 0.000000 -0.878700
vn -0.477400 0.000000 -0.878700
vn -0.477400 0.000000 -0.878700
vn -0.441100 0.382700 -0.811800
vn -0.399000 0.549000 -0.734400
vn -0.441100 0.382700 -0.811800
vn -0.399000 0.549000 -0.734400
vn -0.477400 0.000000 -0.878700
vn -0.477400 0.000000 -0.878700
vn -0.441100 0.382700 -0.811800
vn -0.399000 0.549100 -0.734400
vn -0.441100 -0.382700 -0.811800
vn -0.441100 -0.382700 -0.811800
vn -0.399000 -0.549000 -0.734400
vn -0.399000 -0.549000 -0.734400
vn -0.399000 -0.549000 -0.734400
vn -0.441100 -0.382700 -0.811800
vn -0.441100 -0.382700 -0.811800
vn -0.399000 -0.549000 -0.734400
vn -0.399100 -0.549000 -0.734400
vn -0.441100 -0.382700 -0.811800
vn 0.182700 0.923900 0.336300
vn 0.096800 0.979200 0.178200
vn 0.096800 0.979200 0.178200
vn 0.182700 0.923900 0.336300
vn 0.262100 0.835800 0.482400
vn 0.262100 0.835800 0.482400
vn 0.262100 0.835800 0.482400
vn 0.182700 0.923900 0.336300
vn 0.096800 0.979200 0.178200
vn 0.182700 0.923900 0.336300
vn 0.096800 0.979200 0.178200
vn 0.262100 0.835800 0.482500
vn 0.262100 0.835800 0.482500
vn 0.182700 0.923900 0.336300
vn 0.096800 0.979200 0.178100
vn 0.182700 -0.923900 0.336300
vn 0.096800 -0.979200 0.178200
vn 0.096800 -0.979200 0.178200
vn 0.182700 -0.923900 0.336300
vn 0.337600 -0.707100 0.621300
vn 0.337600 -0.707100 0.621300
vn 0.337600 -0.707100 0.621300
vn 0.182700 -0.923900 0.336300
vn 0.096800 -0.979200 0.178200
vn 0.182700 -0.923900 0.336200
vn 0.096800 -0.979200 0.178200
vn 0.337600 -0.707100 0.621300
vn 0.337600 -0.707100 0.621300
vn 0.182700 -0.923900 0.336200
vn 0.096800 -0.979200 0.178200
vn 0.441100 -0.382700 0.811800
vn 0.441100 -0.382700 0.811800
vn 0.477400 0.000000 0.878700
vn 0.477400 0.000000 0.878700
vn 0.477400 0.000000 0.878700
vn 0.441100 -0.382700 0.811800
vn 0.441000 -0.382700 0.811800
vn 0.477300 0.000000 0.878700
vn 0.477300 0.000000 0.878700
vn 0.441000 -0.382700 0.811800
vn 0.441100 0.382700 0.811800
vn 0.441100 0.382700 0.811800
vn 0.337600 0.707100 0.621300
vn 0.337600 0.707100 0.621300
vn 0.337600 0.707100 0.621300
vn 0.441100 0.382700 0.811800
vn 0.441000 0.382700 0.811800
vn 0.337500 0.707100 0.621300
vn 0.337600 0.707100 0.621400
vn 0.441000 0.382700 0.811800
vn 0.182700 0.923900 0.336300
vn 0.096800 0.979200 0.178200
vn 0.096800 0.979200 0.178200
vn 0.182700 0.923900 0.336300
vn 0.182700 0.923900 0.336300
vn 0.096800 0.979200 0.178200
vn 0.182700 0.923900 0.336300
vn 0.096800 0.979200 0.178200
vn 0.096800 0.979200 0.178200
vn 0.182700 0.923900 0.336300
vt 0.000000 0.000000
vt 0.000000 0.000000
vt 0.000000 0.000000
vt 0.000000 0.000000
vt 0.000000 0.000000
vt 0.000000 0.000000
vt 0.000000 0.000000
vt 0.000000 0.000000
vt 0.000000 0.000000
vt 0.000000 0.000000
vt 0.000000 0.000000
vt 0.000000 0.000000
vt 0.000000 0.000000
vt 0.000000 0.000000
vt 0.000000 0.000000
vt 0.000000 0.000000
vt 0.000000 0.000000
vt 0.000000 0.000000
vt 0.000000 0.000000
vt 0.000000 0.000000
vt 0.000000 0.000000
vt 0.000000 0.000000
vt 0.000000 0.000000
vt 0.000000 0.000000
vt 0.000000 0.000000
vt 0.000000 0.000000
vt 0.000000 0.000000
vt 0.000000 0.000000
vt 0.000000 0.000000
vt 0.000000 0.000000
vt 0.000000 0.000000
vt 0.000000 0.000000
vt 0.000000 0.000000
vt 0.000000 0.000000
vt 0.000000 0.000000
vt 0.000000 0.000000
vt 0.000000 0.000000
vt 0.000000 0.000000
vt 0.000000 0.000000
vt 0.000000 0.000000
vt 0.000000 0.000000
vt 0.000000 0.000000
vt 0.000000 0.000000
vt 0.000000 0.000000
vt 0.000000 0.000000
vt 0.000000 0.000000
vt 0.000000 0.000000
vt 0.000000 0.000000
vt 0.000000 0.000000
vt 0.000000 0.000000
vt 0.000000 0.000000
vt 0.000000 0.000000
vt 0.000000 0.000000
vt 0.000000 0.000000
vt 0.000000 0.000000
vt 0.000000 0.000000
vt 0.000000 0.000000
vt 0.000000 0.000000
vt 0.000000 0.000000
vt 0.000000 0.000000
vt 0.000000 0.000000
vt 0.000000 0.000000
vt 0.000000 0.000000
vt 0.000000 0.000000
vt 0.000000 0.000000
vt 0.000000 0.000000
vt 0.000000 0.000000
vt 0.000000 0.000000
vt 0.000000 0.000000
vt 0.000000 0.000000
vt 0.000000 0.000000
vt 0.000000 0.000000
vt 0.000000 0.000000
vt 0.000000 0.000000
vt 0.000000 0.000000
vt 0.000000 0.000000
vt 0.000000 0.000000
vt 0.000000 0.000000
vt 0.000000 0.000000
vt 0.000000 0.000000
vt 0.000000 0.000000
vt 0.000000 0.000000
vt 0.000000 0.000000
vt 0.000000 0.000000
vt 0.000000 0.000000
vt 0.000000 0.000000
vt 0.000000 0.000000
vt 0.000000 0.000000
vt 0.000000 0.000000
vt 0.000000 0.000000
vt 0.000000 0.000000
vt 0.000000 0.000000
vt 0.000000 0.000000
vt 0.000000 0.000000
vt 0.000000 0.000000
vt 0.000000 0.000000
vt 0.000000 0.000000
vt 0.000000 0.000000
vt 0.000000 0.000000
vt 0.000000 0.000000
vt 0.000000 0.000000
vt 0.000000 0.000000
vt 0.000000 0.000000
vt 0.000000 0.000000
vt 0.000000 0.000000
vt 0.000000 0.000000
vt 0.000000 0.000000
vt 0.000000 0.000000
vt 0.000000 0.000000
vt 0.000000 0.000000
vt 0.000000 0.000000
vt 0.000000 0.000000
vt 0.000000 0.000000
vt 0.000000 0.000000
vt 0.000000 0.000000
vt 0.000000 0.000000
vt 0.000000 0.000000
vt 0.000000 0.000000
vt 0.000000 0.000000
vt 0.000000 0.000000
vt 0.000000 0.000000
vt 0.000000 0.000000
vt 0.000000 0.000000
vt 0.000000 0.000000
vt 0.000000 0.000000
vt 0.000000 0.000000
vt 0.000000 0.000000
vt 0.000000 0.000000
vt 0.000000 0.000000
vt 0.000000 0.000000
vt 0.000000 0.000000
vt 0.000000 0.000000
vt 0.000000 0.000000
vt 0.000000 0.000000
vt 0.000000 0.000000
vt 0.000000 0.000000
vt 0.000000 0.000000
vt 0.000000 0.000000
vt 0.000000 0.000000
vt 0.000000 0.000000
vt 0.000000 0.000000
vt 0.000000 0.000000
vt 0.000000 0.000000
vt 0.000000 0.000000
vt 0.000000 0.000000
vt 0.000000 0.000000
vt 0.000000 0.000000
vt 0.000000 0.000000
vt 0.000000 0.000000
vt 0.000000 0.000000
vt 0.000000 0.000000
vt 0.000000 0.000000
vt 0.000000 0.000000
vt 0.000000 0.000000
vt 0.000000 0.000000
vt 0.000000 0.000000
vt 0.000000 0.000000
vt 0.000000 0.000000
vt 0.000000 0.000000
vt 0.000000 0.000000
vt 0.000000 0.000000
vt 0.000000 0.000000
vt 0.000000 0.000000
vt 0.000000 0.000000
vt 0.000000 0.000000
vt 0.000000 0.000000
vt 0.000000 0.000000
vt 0.000000 0.000000
vt 0.000000 0.000000
vt 0.000000 0.000000
vt 0.000000 0.000000
vt 0.000000 0.000000
vt 0.000000 0.000000
vt 0.000000 0.000000
vt 0.000000 0.000000
vt 0.000000 0.000000
vt 0.000000 0.000000
vt 0.000000 0.000000
vt 0.000000 0.000000
vt 0.000000 0.000000
vt 0.000000 0.000000
vt 0.000000 0.000000
vt 0.000000 0.000000
vt 0.000000 0.000000
vt 0.000000 0.000000
vt 0.000000 0.000000
vt 0.000000 0.000000
vt 0.000000 0.000000
vt 0.000000 0.000000
vt 0.000000 0.000000
vt 0.000000 0.000000
vt 0.000000 0.000000
vt 0.000000 0.000000
vt 0.000000 0.000000
vt 0.000000 0.000000
vt 0.000000 0.000000
vt 0.000000 0.000000
vt 0.000000 0.000000
vt 0.000000 0.000000
vt 0.000000 0.000000
f 1/1/1 2/2/2 3/3/3
f 1/1/1 3/3/3 4/4/4
f 1/1/1 4/4/4 5/5/5
f 1/1/1 5/5/5 6/6/6
f 1/1/1 6/6/6 7/7/7
f 1/1/1 7/7/7 8/8/8
f 1/1/1 8/8/8 9/9/9
f 1/1/1 9/9/9 2/2/2
f 10/10/10 2/2/2 9/9/9
f 10/10/10 9/9/9 11/11/11
f 10/10/10 11/11/11 12/12/12
f 10/10/10 12/12/12 13/13/13
f 10/10/10 13/13/13 14/14/14
f 10/10/10 14/14/14 15/15/15
f 10/10/10 15/15/15 3/3/3
f 10/10/10 3/3/3 2/2/2
f 16/16/16 17/17/17 18/18/18
f 16/16/16 18/18/18 19/19/19
f 16/16/16 19/19/19 20/20/20
f 16/16/16 20/20/20 21/21/21
f 16/16/16 21/21/21 22/22/22
f 16/16/16 22/22/22 23/23/23
f 16/16/16 23/23/23 24/24/24
f 16/16/16 24/24/24 17/17/17
f 25/25/25 21/21/21 20/20/20
f 25/25/25 20/20/20 26/26/26
f 25/25/25 26/26/26 27/27/27
f 25/25/25 27/27/27 28/28/28
f 25/25/25 28/28/28 29/29/29
f 25/25/25 29/29/29 30/30/30
f 25/25/25 30/30/30 22/22/22
f 25/25/25 22/22/22 21/21/21
f 31/31/31 32/32/32 24/24/24
f 31/31/31 24/24/24 23/23/23
f 31/31/31 23/23/23 22/22/22
f 31/31/31 22/22/22 33/33/33
f 31/31/31 33/33/33 34/34/34
f 31/31/31 34/34/34 35/35/35
f 31/31/31 35/35/35 36/36/36
f 31/31/31 36/36/36 32/32/32
f 37/37/37 33/33/33 22/22/22
f 37/37/37 22/22/22 30/30/30
f 37/37/37 30/30/30 29/29/29
f 37/37/37 29/29/29 38/38/38
f 37/37/37 38/38/38 39/39/39
f 37/37/37 39/39/39 40/40/40
f 37/37/37 40/40/40 34/34/34
f 37/37/37 34/34/34 33/33/33
f 41/41/41 42/42/42 43/43/43
f 41/41/41 43/43/43 44/44/44
f 41/41/41 44/44/44 45/45/45
f 41/41/41 45/45/45 46/46/46
f 41/41/41 46/46/46 47/47/47
f 41/41/41 47/47/47 48/48/48
f 41/41/41 48/48/48 49/49/49
f 41/41/41 49/49/49 42/42/42
f 50/50/50 46/46/46 45/45/45
f 50/50/50 45/45/45 51/51/51
f 50/50/50 51/51/51 52/52/52
f 50/50/50 52/52/52 53/53/53
f 50/50/50 53/53/53 54/54/54
f 50/50/50 54/54/54 55/55/55
f 50/50/50 55/55/55 47/47/47
f 50/50/50 47/47/47 46/46/46
f 56/56/56 57/57/57 58/58/58
f 56/56/56 58/58/58 59/59/59
f 56/56/56 59/59/59 60/60/60
f 56/56/56 60/60/60 61/61/61
f 56/56/56 61/61/61 62/62/62
f 56/56/56 62/62/62 63/63/63
f 56/56/56 63/63/63 64/64/64
f 56/56/56 64/64/64 57/57/57
f 65/65/65 61/61/61 60/60/60
f 65/65/65 60/60/60 66/66/66
f 65/65/65 66/66/66 67/67/67
f 65/65/65 67/67/67 68/68/68
f 65/65/65 68/68/68 69/69/69
f 65/65/65 69/69/69 70/70/70
f 65/65/65 70/70/70 62/62/62
f 65/65/65 62/62/62 61/61/61
f 71/71/71 72/72/72 64/64/64
f 71/71/71 64/64/64 63/63/63
f 71/71/71 63/63/63 62/62/62
f 71/71/71 62/62/62 73/73/73
f 71/71/71 73/73/73 74/74/74
f 71/71/71 74/74/74 75/75/75
f 71/71/71 75/75/75 76/76/76
f 71/71/71 76/76/76 72/72/72
f 77/77/77 73/73/73 62/62/62
f 77/77/77 62/62/62 70/70/70
f 77/77/77 70/70/70 69/69/69
f 77/77/77 69/69/69 78/78/78
f 77/77/77 78/78/78 79/79/79
f 77/77/77 79/79/79 80/80/80
f 77/77/77 80/80/80 74/74/74
f 77/77/77 74/74/74 73/73/73
f 81/81/81 82/82/82 76/76/76
f 81/81/81 76/76/76 75/75/75
f 81/81/81 75/75/75 74/74/74
f 81/81/81 74/74/74 83/83/83
f 81/81/81 83/83/83 84/84/84
f 81/81/81 84/84/84 85/85/85
f 81/81/81 85/85/85 86/86/86
f 81/81/81 86/86/86 82/82/82
f 87/87/87 83/83/83 74/74/74
f 87/87/87 74/74/74 80/80/80
f 87/87/87 80/80/80 79/79/79
f 87/87/87 79/79/79 88/88/88
f 87/87/87 88/88/88 89/89/89
f 87/87/87 89/89/89 90/90/90
f 87/87/87 90/90/90 84/84/84
f 87/87/87 84/84/84 83/83/83
f 91/91/91 92/92/92 93/93/93
f 91/91/91 93/93/93 94/94/94
f 91/91/91 94/94/94 95/95/95
f 91/91/91 95/95/95 96/96/96
f 91/91/91 96/96/96 86/86/86
f 91/91/91 86/86/86 85/85/85
f 91/91/91 85/85/85 84/84/84
f 91/91/91 84/84/84 92/92/92
f 97/97/97 92/92/92 84/84/84
f 97/97/97 84/84/84 90/90/90
f 97/97/97 90/90/90 89/89/89
f 97/97/97 89/89/89 98/98/98
f 97/97/97 98/98/98 99/99/99
f 97/97/97 99/99/99 100/100/100
f 97/97/97 100/100/100 93/93/93
f 97/97/97 93/93/93 92/92/92
f 101/101/101 102/102/102 103/103/103
f 101/101/101 103/103/103 104/104/104
f 101/101/101 104/104/104 105/105/105
f 101/101/101 105/105/105 106/106/106
f 101/101/101 106/106/106 107/107/107
f 101/101/101 107/107/107 108/108/108
f 101/101/101 108/108/108 109/109/109
f 101/101/101 109/109/109 102/102/102
f 110/110/110 111/111/111 105/105/105
f 110/110/110 105/105/105 104/104/104
f 110/110/110 104/104/104 103/103/103
f 110/110/110 103/103/103 112/112/112
f 110/110/110 112/112/112 113/113/113
f 110/110/110 113/113/113 114/114/114
f 110/110/110 114/114/114 115/115/115
f 110/110/110 115/115/115 111/111/111
f 116/116/116 117/117/117 118/118/118
f 116/116/116 118/118/118 119/119/119
f 116/116/116 119/119/119 120/120/120
f 116/116/116 120/120/120 121/121/121
f 116/116/116 121/121/121 122/122/122
f 116/116/116 122/122/122 123/123/123
f 116/116/116 123/123/123 124/124/124
f 116/116/116 124/124/124 117/117/117
f 125/125/125 126/126/126 124/124/124
f 125/125/125 124/124/124 123/123/123
f 125/125/125 123/123/123 122/122/122
f 125/125/125 122/122/122 127/127/127
f 125/125/125 127/127/127 128/128/128
f 125/125/125 128/128/128 129/129/129
f 125/125/125 129/129/129 130/130/130
f 125/125/125 130/130/130 126/126/126
f 131/131/131 121/121/121 120/120/120
f 131/131/131 120/120/120 132/132/132
f 131/131/131 132/132/132 133/133/133
f 131/131/131 133/133/133 134/134/134
f 131/131/131 134/134/134 135/135/135
f 131/131/131 135/135/135 136/136/136
f 131/131/131 136/136/136 122/122/122
f 131/131/131 122/122/122 121/121/121
f 137/137/137 127/127/127 122/122/122
f 137/137/137 122/122/122 136/136/136
f 137/137/137 136/136/136 135/135/135
f 137/137/137 135/135/135 138/138/138
f 137/137/137 138/138/138 139/139/139
f 137/137/137 139/139/139 140/140/140
f 137/137/137 140/140/140 128/128/128
f 137/137/137 128/128/128 127/127/127
f 141/141/141 142/142/142 143/143/143
f 141/141/141 143/143/143 144/144/144
f 141/141/141 144/144/144 145/145/145
f 141/141/141 145/145/145 146/146/146
f 141/141/141 146/146/146 147/147/147
f 141/141/141 147/147/147 148/148/148
f 141/141/141 148/148/148 149/149/149
f 141/141/141 149/149/149 142/142/142
f 150/150/150 151/151/151 149/149/149
f 150/150/150 149/149/149 148/148/148
f 150/150/150 148/148/148 147/147/147
f 150/150/150 147/147/147 152/152/152
f 150/150/150 152/152/152 153/153/153
f 150/150/150 153/153/153 154/154/154
f 150/150/150 154/154/154 155/155/155
f 150/150/150 155/155/155 151/151/151
f 156/156/156 157/157/157 158/158/158
f 156/156/156 158/158/158 159/159/159
f 156/156/156 159/159/159 160/160/160
f 156/156/156 160/160/160 161/161/161
f 156/156/156 161/161/161 162/162/162
f 156/156/156 162/162/162 163/163/163
f 156/156/156 163/163/163 164/164/164
f 156/156/156 164/164/164 157/157/157
f 165/165/165 166/166/166 164/164/164
f 165/165/165 164/164/164 163/163/163
f 165/165/165 163/163/163 162/162/162
f 165/165/165 162/162/162 167/167/167
f 165/165/165 167/167/167 168/168/168
f 165/165/165 168/168/168 169/169/169
f 165/165/165 169/169/169 170/170/170
f 165/165/165 170/170/170 166/166/166
f 171/171/171 161/161/161 160/160/160
f 171/171/171 160/160/160 172/172/172
f 171/171/171 172/172/172 173/173/173
f 171/171/171 173/173/173 174/174/174
f 171/171/171 174/174/174 175/175/175
f 171/171/171 175/175/175 176/176/176
f 171/171/171 176/176/176 162/162/162
f 171/171/171 162/162/162 161/161/161
f 177/177/177 167/167/167 162/162/162
f 177/177/177 162/162/162 176/176/176
f 177/177/177 176/176/176 175/175/175
f 177/177/177 175/175/175 178/178/178
f 177/177/177 178/178/178 179/179/179
f 177/177/177 179/179/179 180/180/180
f 177/177/177 180/180/180 168/168/168
f 177/177/177 168/168/168 167/167/167
f 181/181/181 174/174/174 173/173/173
f 181/181/181 173/173/173 182/182/182
f 181/181/181 182/182/182 183/183/183
f 181/181/181 183/183/183 184/184/184
f 181/181/181 184/184/184 185/185/185
f 181/181/181 185/185/185 186/186/186
f 181/181/181 186/186/186 175/175/175
f 181/181/181 175/175/175 174/174/174
f 187/187/187 178/178/178 175/175/175
f 187/187/187 175/175/175 186/186/186
f 187/187/187 186/186/186 185/185/185
f 187/187/187 185/185/185 188/188/188
f 187/187/187 188/188/188 189/189/189
f 187/187/187 189/189/189 190/190/190
f 187/187/187 190/190/190 179/179/179
f 187/187/187 179/179/179 178/178/178
f 191/191/191 192/192/192 193/193/193
f 191/191/191 193/193/193 194/194/194
f 191/191/191 194/194/194 185/185/185
f 191/191/191 185/185/185 184/184/184
f 191/191/191 184/184/184 183/183/183
f 191/191/191 183/183/183 195/195/195
f 191/191/191 195/195/195 196/196/196
f 191/191/191 196/196/196 192/192/192
f 197/197/197 188/188/188 185/185/185
f 197/197/197 185/185/185 194/194/194
f 197/197/197 194/194/194 193/193/193
f 197/197/197 193/193/193 198/198/198
f 197/197/197 198/198/198 199/199/199
f 197/197/197 199/199/199 200/200/200
f 197/197/197 200/200/200 189/189/189
f 197/197/197 189/189/189 188/188/188
