v -2.292011 1.331835 1.592628
v -2.269878 1.331835 1.568559
v -2.270098 1.302358 1.568798
v -2.292341 1.302358 1.592987
v -2.247745 1.331835 1.544490
v -2.247855 1.302358 1.544609
v -2.225612 1.331835 1.520421
v -2.225612 1.302358 1.520421
v -2.203479 1.331835 1.496351
v -2.203369 1.302358 1.496232
v -2.181345 1.331835 1.472282
v -2.181126 1.302358 1.472043
v -2.159212 1.331835 1.448213
v -2.158882 1.302358 1.447854
v -2.269988 1.272881 1.568679
v -2.292176 1.272881 1.592808
v -2.247800 1.272881 1.544550
v -2.225612 1.272881 1.520421
v -2.203424 1.272881 1.496292
v -2.181236 1.272881 1.472163
v -2.159047 1.272881 1.448034
v -2.269181 1.243404 1.567801
v -2.290966 1.243404 1.591491
v -2.247396 1.243404 1.544111
v -2.225612 1.243404 1.520421
v -2.203827 1.243404 1.496731
v -2.182043 1.243404 1.473040
v -2.160258 1.243404 1.449350
v -2.268683 1.233252 1.567260
v -2.290219 1.233252 1.590679
v -2.247148 1.233252 1.543840
v -2.225612 1.233252 1.520421
v -2.204076 1.233252 1.497001
v -2.182540 1.233252 1.473582
v -2.161005 1.233252 1.450162
v -2.290196 1.361312 1.590654
v -2.268668 1.361312 1.567243
v -2.247140 1.361312 1.543832
v -2.225612 1.361312 1.520421
v -2.204084 1.361312 1.497010
v -2.182556 1.361312 1.473598
v -2.161027 1.361312 1.450187
v -2.288526 1.374928 1.588838
v -2.267555 1.374928 1.566032
v -2.246583 1.374928 1.543226
v -2.225612 1.374928 1.520421
v -2.204641 1.374928 1.497615
v -2.183669 1.374928 1.474809
v -2.162698 1.374928 1.452004
v -2.267991 1.221133 1.566507
v -2.289181 1.221133 1.589550
v -2.246802 1.221133 1.543464
v -2.225612 1.221133 1.520421
v -2.204422 1.221133 1.497378
v -2.183233 1.221133 1.474335
v -2.162043 1.221133 1.451292
v -2.225612 1.390790 1.520421
v -2.205372 1.390790 1.498411
v -2.245852 1.390790 1.542431
v -2.266091 1.389248 1.564441
v -2.185133 1.389248 1.476401
v -2.164893 1.386194 1.454391
v -2.286331 1.386194 1.586451
v -2.225612 1.212354 1.520421
v -2.245852 1.212354 1.542431
v -2.205372 1.212354 1.498411
v -2.185133 1.212354 1.476401
v -2.164893 1.212354 1.454391
v -2.266091 1.212354 1.564441
v -2.286331 1.212354 1.586451
v -2.152496 1.331835 1.440910
v -2.152133 1.302358 1.440515
v -2.144854 1.331835 1.432599
v -2.144453 1.302358 1.432163
v -2.152315 1.272881 1.440712
v -2.144653 1.272881 1.432381
v -2.153648 1.243404 1.442162
v -2.146126 1.243404 1.433982
v -2.154470 1.233252 1.443056
v -2.147034 1.233252 1.434969
v -2.154495 1.361312 1.443083
v -2.147062 1.361312 1.435000
v -2.156335 1.374928 1.445084
v -2.149093 1.374928 1.437209
v -2.155613 1.221133 1.444299
v -2.148297 1.221133 1.436343
v -2.160604 1.385411 1.449727
v -2.155725 1.384520 1.444421
v -2.158436 1.212948 1.447369
v -2.150500 1.215199 1.438739
v -2.306370 1.331835 1.608242
v -2.299191 1.331835 1.600435
v -2.299556 1.302358 1.600833
v -2.306771 1.302358 1.608679
v -2.299374 1.272881 1.600634
v -2.306571 1.272881 1.608461
v -2.298032 1.243404 1.599175
v -2.305098 1.243404 1.606859
v -2.297205 1.233252 1.598275
v -2.304190 1.233252 1.605872
v -2.304162 1.361312 1.605842
v -2.297179 1.361312 1.598248
v -2.302130 1.374928 1.603632
v -2.295328 1.374928 1.596235
v -2.296054 1.221133 1.597024
v -2.302927 1.221133 1.604498
v -2.295499 1.384520 1.596421
v -2.290915 1.385357 1.591436
v -2.292788 1.212948 1.593473
v -2.300724 1.215199 1.602103
vn -0.736100 0.000000 -0.676900
vn -0.736100 0.000000 -0.676900
vn -0.736100 0.000000 -0.676900
vn -0.736100 0.000000 -0.676900
vn -0.736100 0.000000 -0.676900
vn -0.736100 0.000000 -0.676900
vn -0.736100 0.000000 -0.676900
vn -0.736100 0.000000 -0.676900
vn -0.736100 0.000000 -0.676900
vn -0.736100 0.000000 -0.676900
vn -0.736100 0.000000 -0.676900
vn -0.736100 0.000000 -0.676900
vn -0.736100 0.000000 -0.676900
vn -0.736100 0.000000 -0.676900
vn -0.736100 0.000000 -0.676900
vn -0.736100 0.000000 -0.676900
vn -0.736100 0.000000 -0.676900
vn -0.736100 0.000000 -0.676900
vn -0.736100 0.000000 -0.676900
vn -0.736100 0.000000 -0.676900
vn -0.736100 0.000000 -0.676900
vn -0.736100 0.000000 -0.676900
vn -0.736100 0.000000 -0.676900
vn -0.736100 0.000000 -0.676900
vn -0.736100 0.000000 -0.676900
vn -0.736100 0.000000 -0.676900
vn -0.736100 0.000000 -0.676900
vn -0.736100 0.000000 -0.676900
vn -0.736100 0.000000 -0.676900
vn -0.736100 0.000000 -0.676900
vn -0.736100 0.000000 -0.676900
vn -0.736100 0.000000 -0.676900
vn -0.736100 0.000000 -0.676900
vn -0.736100 0.000000 -0.676900
vn -0.736100 0.000000 -0.676900
vn -0.736100 0.000000 -0.676900
vn -0.736100 0.000000 -0.676900
vn -0.736100 0.000000 -0.676900
vn -0.736100 0.000000 -0.676900
vn -0.736100 0.000000 -0.676900
vn -0.736100 0.000000 -0.676900
vn -0.736100 0.000000 -0.676900
vn -0.736100 0.000000 -0.676900
vn -0.736100 0.000000 -0.676900
vn -0.736100 0.000000 -0.676900
vn -0.736100 0.000000 -0.676900
vn -0.736100 0.000000 -0.676900
vn -0.736100 0.000000 -0.676900
vn -0.736100 0.000000 -0.676900
vn -0.736100 0.000000 -0.676900
vn -0.736100 0.000000 -0.676900
vn -0.736100 0.000000 -0.676900
vn -0.736100 0.000000 -0.676900
vn -0.736100 0.000000 -0.676900
vn -0.736100 0.000000 -0.676900
vn -0.736100 0.000000 -0.676900
vn -0.736100 0.000000 -0.676900
vn -0.736100 0.000000 -0.676900
vn -0.736100 0.000000 -0.676900
vn -0.736100 0.000000 -0.676900
vn -0.736100 0.000000 -0.676900
vn -0.736100 0.000000 -0.676900
vn -0.736100 0.000000 -0.676900
vn -0.736100 0.000000 -0.676900
vn -0.736100 0.000000 -0.676900
vn -0.736100 0.000000 -0.676900
vn -0.736100 0.000000 -0.676900
vn -0.736100 0.000000 -0.676900
vn -0.736100 0.000000 -0.676900
vn -0.736100 0.000000 -0.676900
vn -0.736100 0.000000 -0.676900
vn -0.736100 0.000000 -0.676900
vn -0.736100 0.000000 -0.676900
vn -0.736100 0.000000 -0.676900
vn -0.736100 0.000000 -0.676900
vn -0.736100 0.000000 -0.676900
vn -0.736100 0.000000 -0.676900
vn -0.736100 0.000000 -0.676900
vn -0.736100 0.000000 -0.676900
vn -0.736100 0.000000 -0.676900
vn -0.736100 0.000000 -0.676900
vn -0.736100 0.000000 -0.676900
vn -0.736100 0.000000 -0.676900
vn -0.736100 0.000000 -0.676900
vn -0.736100 0.000000 -0.676900
vn -0.736100 0.000000 -0.676900
vn -0.736100 0.000000 -0.676900
vn -0.736100 0.000000 -0.676900
vn -0.736100 0.000000 -0.676900
vn -0.736100 0.000000 -0.676900
vn -0.736100 0.000000 -0.676900
vn -0.736100 0.000000 -0.676900
vn -0.736100 0.000000 -0.676900
vn -0.736100 0.000000 -0.676900
vn -0.736100 0.000000 -0.676900
vn -0.736100 0.000000 -0.676900
vn -0.736100 0.000000 -0.676900
vn -0.736100 0.000000 -0.676900
vn -0.736100 0.000000 -0.676900
vn -0.736100 0.000000 -0.676900
vn -0.736100 0.000000 -0.676900
vn -0.736100 0.000000 -0.676900
vn -0.736100 0.000000 -0.676900
vn -0.736100 0.000000 -0.676900
vn -0.736100 0.000000 -0.676900
vn -0.736100 0.000000 -0.676900
vn -0.736100 0.000000 -0.676900
vn -0.736100 0.000000 -0.676900
vn -0.736100 0.000000 -0.676900
vn -0.736100 0.000000 -0.676900
vt 0.000000 0.000000
vt 0.000000 0.000000
vt 0.000000 0.000000
vt 0.000000 0.000000
vt 0.000000 0.000000
vt 0.000000 0.000000
vt 0.000000 0.000000
vt 0.000000 0.000000
vt 0.000000 0.000000
vt 0.000000 0.000000
vt 0.000000 0.000000
vt 0.000000 0.000000
vt 0.000000 0.000000
vt 0.000000 0.000000
vt 0.000000 0.000000
vt 0.000000 0.000000
vt 0.000000 0.000000
vt 0.000000 0.000000
vt 0.000000 0.000000
vt 0.000000 0.000000
vt 0.000000 0.000000
vt 0.000000 0.000000
vt 0.000000 0.000000
vt 0.000000 0.000000
vt 0.000000 0.000000
vt 0.000000 0.000000
vt 0.000000 0.000000
vt 0.000000 0.000000
vt 0.000000 0.000000
vt 0.000000 0.000000
vt 0.000000 0.000000
vt 0.000000 0.000000
vt 0.000000 0.000000
vt 0.000000 0.000000
vt 0.000000 0.000000
vt 0.000000 0.000000
vt 0.000000 0.000000
vt 0.000000 0.000000
vt 0.000000 0.000000
vt 0.000000 0.000000
vt 0.000000 0.000000
vt 0.000000 0.000000
vt 0.000000 0.000000
vt 0.000000 0.000000
vt 0.000000 0.000000
vt 0.000000 0.000000
vt 0.000000 0.000000
vt 0.000000 0.000000
vt 0.000000 0.000000
vt 0.000000 0.000000
vt 0.000000 0.000000
vt 0.000000 0.000000
vt 0.000000 0.000000
vt 0.000000 0.000000
vt 0.000000 0.000000
vt 0.000000 0.000000
vt 0.000000 0.000000
vt 0.000000 0.000000
vt 0.000000 0.000000
vt 0.000000 0.000000
vt 0.000000 0.000000
vt 0.000000 0.000000
vt 0.000000 0.000000
vt 0.000000 0.000000
vt 0.000000 0.000000
vt 0.000000 0.000000
vt 0.000000 0.000000
vt 0.000000 0.000000
vt 0.000000 0.000000
vt 0.000000 0.000000
vt 0.000000 0.000000
vt 0.000000 0.000000
vt 0.000000 0.000000
vt 0.000000 0.000000
vt 0.000000 0.000000
vt 0.000000 0.000000
vt 0.000000 0.000000
vt 0.000000 0.000000
vt 0.000000 0.000000
vt 0.000000 0.000000
vt 0.000000 0.000000
vt 0.000000 0.000000
vt 0.000000 0.000000
vt 0.000000 0.000000
vt 0.000000 0.000000
vt 0.000000 0.000000
vt 0.000000 0.000000
vt 0.000000 0.000000
vt 0.000000 0.000000
vt 0.000000 0.000000
vt 0.000000 0.000000
vt 0.000000 0.000000
vt 0.000000 0.000000
vt 0.000000 0.000000
vt 0.000000 0.000000
vt 0.000000 0.000000
vt 0.000000 0.000000
vt 0.000000 0.000000
vt 0.000000 0.000000
vt 0.000000 0.000000
vt 0.000000 0.000000
vt 0.000000 0.000000
vt 0.000000 0.000000
vt 0.000000 0.000000
vt 0.000000 0.000000
vt 0.000000 0.000000
vt 0.000000 0.000000
vt 0.000000 0.000000
vt 0.000000 0.000000
vt 0.000000 0.000000
f 1/1/1 2/2/2 3/3/3
f 1/1/1 3/3/3 4/4/4
f 2/2/2 5/5/5 6/6/6
f 2/2/2 6/6/6 3/3/3
f 5/5/5 7/7/7 8/8/8
f 5/5/5 8/8/8 6/6/6
f 7/7/7 9/9/9 10/10/10
f 7/7/7 10/10/10 8/8/8
f 9/9/9 11/11/11 12/12/12
f 9/9/9 12/12/12 10/10/10
f 11/11/11 13/13/13 14/14/14
f 11/11/11 14/14/14 12/12/12
f 4/4/4 3/3/3 15/15/15
f 4/4/4 15/15/15 16/16/16
f 3/3/3 6/6/6 17/17/17
f 3/3/3 17/17/17 15/15/15
f 6/6/6 8/8/8 18/18/18
f 6/6/6 18/18/18 17/17/17
f 8/8/8 10/10/10 19/19/19
f 8/8/8 19/19/19 18/18/18
f 10/10/10 12/12/12 20/20/20
f 10/10/10 20/20/20 19/19/19
f 12/12/12 14/14/14 21/21/21
f 12/12/12 21/21/21 20/20/20
f 16/16/16 15/15/15 22/22/22
f 16/16/16 22/22/22 23/23/23
f 15/15/15 17/17/17 24/24/24
f 15/15/15 24/24/24 22/22/22
f 17/17/17 18/18/18 25/25/25
f 17/17/17 25/25/25 24/24/24
f 18/18/18 19/19/19 26/26/26
f 18/18/18 26/26/26 25/25/25
f 19/19/19 20/20/20 27/27/27
f 19/19/19 27/27/27 26/26/26
f 20/20/20 21/21/21 28/28/28
f 20/20/20 28/28/28 27/27/27
f 23/23/23 22/22/22 29/29/29
f 23/23/23 29/29/29 30/30/30
f 22/22/22 24/24/24 31/31/31
f 22/22/22 31/31/31 29/29/29
f 24/24/24 25/25/25 32/32/32
f 24/24/24 32/32/32 31/31/31
f 25/25/25 26/26/26 33/33/33
f 25/25/25 33/33/33 32/32/32
f 26/26/26 27/27/27 34/34/34
f 26/26/26 34/34/34 33/33/33
f 27/27/27 28/28/28 35/35/35
f 27/27/27 35/35/35 34/34/34
f 36/36/36 37/37/37 2/2/2
f 36/36/36 2/2/2 1/1/1
f 37/37/37 38/38/38 5/5/5
f 37/37/37 5/5/5 2/2/2
f 38/38/38 39/39/39 7/7/7
f 38/38/38 7/7/7 5/5/5
f 39/39/39 40/40/40 9/9/9
f 39/39/39 9/9/9 7/7/7
f 40/40/40 41/41/41 11/11/11
f 40/40/40 11/11/11 9/9/9
f 41/41/41 42/42/42 13/13/13
f 41/41/41 13/13/13 11/11/11
f 43/43/43 44/44/44 37/37/37
f 43/43/43 37/37/37 36/36/36
f 44/44/44 45/45/45 38/38/38
f 44/44/44 38/38/38 37/37/37
f 45/45/45 46/46/46 39/39/39
f 45/45/45 39/39/39 38/38/38
f 46/46/46 47/47/47 40/40/40
f 46/46/46 40/40/40 39/39/39
f 47/47/47 48/48/48 41/41/41
f 47/47/47 41/41/41 40/40/40
f 48/48/48 49/49/49 42/42/42
f 48/48/48 42/42/42 41/41/41
f 30/30/30 29/29/29 50/50/50
f 30/30/30 50/50/50 51/51/51
f 29/29/29 31/31/31 52/52/52
f 29/29/29 52/52/52 50/50/50
f 31/31/31 32/32/32 53/53/53
f 31/31/31 53/53/53 52/52/52
f 32/32/32 33/33/33 54/54/54
f 32/32/32 54/54/54 53/53/53
f 33/33/33 34/34/34 55/55/55
f 33/33/33 55/55/55 54/54/54
f 34/34/34 35/35/35 56/56/56
f 34/34/34 56/56/56 55/55/55
f 57/57/57 58/58/58 47/47/47
f 57/57/57 47/47/47 46/46/46
f 57/57/57 46/46/46 45/45/45
f 57/57/57 45/45/45 59/59/59
f 60/60/60 59/59/59 45/45/45
f 60/60/60 45/45/45 44/44/44
f 61/61/61 48/48/48 47/47/47
f 61/61/61 47/47/47 58/58/58
f 62/62/62 49/49/49 48/48/48
f 62/62/62 48/48/48 61/61/61
f 63/63/63 60/60/60 44/44/44
f 63/63/63 44/44/44 43/43/43
f 64/64/64 65/65/65 52/52/52
f 64/64/64 52/52/52 53/53/53
f 64/64/64 53/53/53 54/54/54
f 64/64/64 54/54/54 66/66/66
f 67/67/67 66/66/66 54/54/54
f 67/67/67 54/54/54 55/55/55
f 68/68/68 67/67/67 55/55/55
f 68/68/68 55/55/55 56/56/56
f 69/69/69 50/50/50 52/52/52
f 69/69/69 52/52/52 65/65/65
f 70/70/70 51/51/51 50/50/50
f 70/70/70 50/50/50 69/69/69
f 13/13/13 71/71/71 72/72/72
f 13/13/13 72/72/72 14/14/14
f 71/71/71 73/73/73 74/74/74
f 71/71/71 74/74/74 72/72/72
f 14/14/14 72/72/72 75/75/75
f 14/14/14 75/75/75 21/21/21
f 72/72/72 74/74/74 76/76/76
f 72/72/72 76/76/76 75/75/75
f 21/21/21 75/75/75 77/77/77
f 21/21/21 77/77/77 28/28/28
f 75/75/75 76/76/76 78/78/78
f 75/75/75 78/78/78 77/77/77
f 28/28/28 77/77/77 79/79/79
f 28/28/28 79/79/79 35/35/35
f 77/77/77 78/78/78 80/80/80
f 77/77/77 80/80/80 79/79/79
f 42/42/42 81/81/81 71/71/71
f 42/42/42 71/71/71 13/13/13
f 81/81/81 82/82/82 73/73/73
f 81/81/81 73/73/73 71/71/71
f 49/49/49 83/83/83 81/81/81
f 49/49/49 81/81/81 42/42/42
f 83/83/83 84/84/84 82/82/82
f 83/83/83 82/82/82 81/81/81
f 35/35/35 79/79/79 85/85/85
f 35/35/35 85/85/85 56/56/56
f 79/79/79 80/80/80 86/86/86
f 79/79/79 86/86/86 85/85/85
f 84/84/84 83/83/83 87/87/87
f 84/84/84 87/87/87 88/88/88
f 83/83/83 49/49/49 62/62/62
f 83/83/83 62/62/62 87/87/87
f 89/89/89 68/68/68 56/56/56
f 89/89/89 56/56/56 85/85/85
f 89/89/89 85/85/85 86/86/86
f 89/89/89 86/86/86 90/90/90
f 91/91/91 92/92/92 93/93/93
f 91/91/91 93/93/93 94/94/94
f 92/92/92 1/1/1 4/4/4
f 92/92/92 4/4/4 93/93/93
f 94/94/94 93/93/93 95/95/95
f 94/94/94 95/95/95 96/96/96
f 93/93/93 4/4/4 16/16/16
f 93/93/93 16/16/16 95/95/95
f 96/96/96 95/95/95 97/97/97
f 96/96/96 97/97/97 98/98/98
f 95/95/95 16/16/16 23/23/23
f 95/95/95 23/23/23 97/97/97
f 98/98/98 97/97/97 99/99/99
f 98/98/98 99/99/99 100/100/100
f 97/97/97 23/23/23 30/30/30
f 97/97/97 30/30/30 99/99/99
f 101/101/101 102/102/102 92/92/92
f 101/101/101 92/92/92 91/91/91
f 102/102/102 36/36/36 1/1/1
f 102/102/102 1/1/1 92/92/92
f 103/103/103 104/104/104 102/102/102
f 103/103/103 102/102/102 101/101/101
f 104/104/104 43/43/43 36/36/36
f 104/104/104 36/36/36 102/102/102
f 100/100/100 99/99/99 105/105/105
f 100/100/100 105/105/105 106/106/106
f 99/99/99 30/30/30 51/51/51
f 99/99/99 51/51/51 105/105/105
f 107/107/107 108/108/108 104/104/104
f 107/107/107 104/104/104 103/103/103
f 108/108/108 63/63/63 43/43/43
f 108/108/108 43/43/43 104/104/104
f 109/109/109 105/105/105 51/51/51
f 109/109/109 51/51/51 70/70/70
f 109/109/109 110/110/110 106/106/106
f 109/109/109 106/106/106 105/105/105
