v -2.180064 1.339357 1.478814
v -2.181124 1.340653 1.479967
v -2.211426 1.286563 1.512919
v -2.210366 1.285267 1.511767
v -2.211426 1.286563 1.512919
v -2.181124 1.340653 1.479967
v -2.181381 1.340653 1.479730
v -2.211683 1.286563 1.512683
v -2.181124 1.340653 1.479967
v -2.180064 1.339357 1.478814
v -2.180321 1.339357 1.478577
v -2.181381 1.340653 1.479730
v -2.180064 1.339357 1.478814
v -2.210366 1.285267 1.511767
v -2.210623 1.285267 1.511530
v -2.180321 1.339357 1.478577
v -2.210366 1.285267 1.511767
v -2.211426 1.286563 1.512919
v -2.211683 1.286563 1.512683
v -2.210623 1.285267 1.511530
v -2.211683 1.286563 1.512683
v -2.181381 1.340653 1.479730
v -2.180321 1.339357 1.478577
v -2.210623 1.285267 1.511530
vn 0.736100 -0.000000 0.676900
vn 0.736100 -0.000000 0.676900
vn 0.736100 -0.000000 0.676900
vn 0.736100 -0.000000 0.676900
vn -0.521400 0.637600 0.567100
vn -0.521400 0.637600 0.567100
vn -0.521400 0.637600 0.567100
vn -0.521400 0.637600 0.567100
vn 0.431500 0.770300 -0.469500
vn 0.431500 0.770300 -0.469500
vn 0.431500 0.770300 -0.469500
vn 0.431500 0.770300 -0.469500
vn 0.521300 -0.637800 -0.567100
vn 0.521300 -0.637800 -0.567100
vn 0.521300 -0.637800 -0.567100
vn 0.521300 -0.637800 -0.567100
vn -0.431400 -0.770500 0.469200
vn -0.431400 -0.770500 0.469200
vn -0.431400 -0.770500 0.469200
vn -0.431400 -0.770500 0.469200
vn -0.736100 0.000100 -0.676900
vn -0.736100 0.000100 -0.676900
vn -0.736100 0.000100 -0.676900
vn -0.736100 0.000100 -0.676900
vt 0.000000 0.000000
vt 0.000000 0.000000
vt 0.000000 0.000000
vt 0.000000 0.000000
vt 0.000000 0.000000
vt 0.000000 0.000000
vt 0.000000 0.000000
vt 0.000000 0.000000
vt 0.000000 0.000000
vt 0.000000 0.000000
vt 0.000000 0.000000
vt 0.000000 0.000000
vt 0.000000 0.000000
vt 0.000000 0.000000
vt 0.000000 0.000000
vt 0.000000 0.000000
vt 0.000000 0.000000
vt 0.000000 0.000000
vt 0.000000 0.000000
vt 0.000000 0.000000
vt 0.000000 0.000000
vt 0.000000 0.000000
vt 0.000000 0.000000
vt 0.000000 0.000000
f 1/1/1 2/2/2 3/3/3
f 1/1/1 3/3/3 4/4/4
f 5/5/5 6/6/6 7/7/7
f 5/5/5 7/7/7 8/8/8
f 9/9/9 10/10/10 11/11/11
f 9/9/9 11/11/11 12/12/12
f 13/13/13 14/14/14 15/15/15
f 13/13/13 15/15/15 16/16/16
f 17/17/17 18/18/18 19/19/19
f 17/17/17 19/19/19 20/20/20
f 21/21/21 22/22/22 23/23/23
f 21/21/21 23/23/23 24/24/24
