v -2.367865 0.931568 3.751652
v -2.195604 0.931568 3.751652
v -2.195604 1.166806 3.730010
v -2.367865 1.166806 3.730010
v -2.195604 0.932829 3.765365
v -2.367865 0.932829 3.765365
v -2.367865 1.168068 3.743723
v -2.195604 1.168068 3.743723
v -2.194778 0.931684 3.752913
v -2.195604 0.931568 3.751652
v -2.367865 0.931568 3.751652
v -2.367865 0.931684 3.752913
v -2.367865 0.931684 3.752913
v -2.367865 0.932713 3.764104
v -2.194778 0.932713 3.764104
v -2.194778 0.931684 3.752913
v -2.367865 0.932829 3.765365
v -2.195604 0.932829 3.765365
v -2.367865 0.932829 3.765365
v -2.367865 0.932713 3.764104
v -2.367865 1.167952 3.742462
v -2.367865 1.168068 3.743723
v -2.367865 0.931684 3.752913
v -2.367865 1.166922 3.731271
v -2.367865 0.931568 3.751652
v -2.367865 1.166806 3.730010
v -2.195604 0.931568 3.751652
v -2.194778 0.931684 3.752913
v -2.194778 1.166922 3.731271
v -2.195604 1.166806 3.730010
v -2.194778 0.931684 3.752913
v -2.194778 0.932713 3.764104
v -2.194778 1.167952 3.742462
v -2.194778 1.166922 3.731271
v -2.194778 0.932713 3.764104
v -2.195604 0.932829 3.765365
v -2.195604 1.168068 3.743723
v -2.194778 1.167952 3.742462
v -2.367865 1.168068 3.743723
v -2.367865 1.167952 3.742462
v -2.194778 1.167952 3.742462
v -2.195604 1.168068 3.743723
v -2.367865 1.166922 3.731271
v -2.194778 1.166922 3.731271
v -2.367865 1.166806 3.730010
v -2.195604 1.166806 3.730010
vn 0.000000 0.091600 0.995800
vn 0.000000 0.091600 0.995800
vn 0.000000 0.091600 0.995800
vn 0.000000 0.091600 0.995800
vn 0.000000 -0.091600 -0.995800
vn 0.000000 -0.091600 -0.995800
vn 0.000000 -0.091600 -0.995800
vn 0.000000 -0.091600 -0.995800
vn 0.000000 0.995800 -0.091700
vn 0.000000 0.995800 -0.091700
vn 0.000000 0.995800 -0.091700
vn 0.000000 0.995800 -0.091700
vn 0.000000 0.995800 -0.091600
vn 0.000000 0.995800 -0.091600
vn 0.000000 0.995800 -0.091600
vn 0.000000 0.995800 -0.091600
vn 0.000000 0.995800 -0.091600
vn 0.000000 0.995800 -0.091600
vn 1.000000 0.000000 0.000000
vn 1.000000 0.000000 0.000000
vn 1.000000 0.000000 0.000000
vn 1.000000 0.000000 0.000000
vn 1.000000 0.000000 0.000000
vn 1.000000 0.000000 0.000000
vn 1.000000 0.000000 0.000000
vn 1.000000 0.000000 0.000000
vn -0.837400 0.050100 0.544200
vn -0.837400 0.050100 0.544200
vn -0.837400 0.050100 0.544200
vn -0.837400 0.050100 0.544200
vn -1.000000 -0.000000 0.000000
vn -1.000000 -0.000000 0.000000
vn -1.000000 -0.000000 0.000000
vn -1.000000 -0.000000 0.000000
vn -0.837400 -0.050100 -0.544200
vn -0.837400 -0.050100 -0.544200
vn -0.837400 -0.050100 -0.544200
vn -0.837400 -0.050100 -0.544200
vn 0.000000 -0.995800 0.091600
vn 0.000000 -0.995800 0.091600
vn 0.000000 -0.995800 0.091600
vn 0.000000 -0.995800 0.091600
vn 0.000000 -0.995800 0.091600
vn 0.000000 -0.995800 0.091600
vn 0.000000 -0.995800 0.091600
vn 0.000000 -0.995800 0.091600
vt 0.725814 0.002481
vt 0.724981 0.002481
vt 0.725540 0.937010
vt 0.725814 0.937010
vt 0.704086 0.002481
vt 0.703179 0.002481
vt 0.703179 0.937010
vt 0.704086 0.937010
vt 0.987148 0.008603
vt 0.989829 0.008603
vt 0.989829 0.127444
vt 0.987148 0.127444
vt 0.987148 0.127444
vt 0.946689 0.127444
vt 0.946689 0.008603
vt 0.987148 0.008603
vt 0.943949 0.127444
vt 0.943949 0.008603
vt 0.943949 0.127444
vt 0.946689 0.127444
vt 0.946689 0.256778
vt 0.943949 0.256778
vt 0.987148 0.127444
vt 0.987148 0.256778
vt 0.989829 0.127444
vt 0.989829 0.256778
vt 0.724981 0.002481
vt 0.724199 0.002481
vt 0.724199 0.937010
vt 0.725540 0.937010
vt 0.724199 0.002481
vt 0.704544 0.002481
vt 0.704544 0.937010
vt 0.724199 0.937010
vt 0.704544 0.002481
vt 0.704086 0.002481
vt 0.704086 0.937010
vt 0.704544 0.937010
vt 0.943949 0.256778
vt 0.946689 0.256778
vt 0.946689 0.375415
vt 0.943949 0.375415
vt 0.987148 0.256778
vt 0.987148 0.375415
vt 0.989829 0.256778
vt 0.989829 0.375415
f 1/1/1 2/2/2 3/3/3
f 1/1/1 3/3/3 4/4/4
f 5/5/5 6/6/6 7/7/7
f 5/5/5 7/7/7 8/8/8
f 9/9/9 10/10/10 11/11/11
f 9/9/9 11/11/11 12/12/12
f 13/13/13 14/14/14 15/15/15
f 13/13/13 15/15/15 16/16/16
f 14/14/14 17/17/17 18/18/18
f 14/14/14 18/18/18 15/15/15
f 19/19/19 20/20/20 21/21/21
f 19/19/19 21/21/21 22/22/22
f 20/20/20 23/23/23 24/24/24
f 20/20/20 24/24/24 21/21/21
f 23/23/23 25/25/25 26/26/26
f 23/23/23 26/26/26 24/24/24
f 27/27/27 28/28/28 29/29/29
f 27/27/27 29/29/29 30/30/30
f 31/31/31 32/32/32 33/33/33
f 31/31/31 33/33/33 34/34/34
f 35/35/35 36/36/36 37/37/37
f 35/35/35 37/37/37 38/38/38
f 39/39/39 40/40/40 41/41/41
f 39/39/39 41/41/41 42/42/42
f 40/40/40 43/43/43 44/44/44
f 40/40/40 44/44/44 41/41/41
f 43/43/43 45/45/45 46/46/46
f 43/43/43 46/46/46 44/44/44
