v -2.144240 0.030628 3.636161
v -2.144240 1.222569 3.636161
v -2.421739 1.222569 3.636161
v -2.421739 0.030628 3.636161
v -2.142576 1.201354 3.653693
v -2.142576 1.219755 3.637825
v -2.142576 0.030628 3.637825
v -2.142576 0.030628 3.653693
v -2.142576 0.030628 4.227436
v -2.142576 1.219755 4.227436
v -2.142576 1.201354 4.211568
v -2.142576 0.030628 4.211568
v -2.423404 1.203637 3.656119
v -2.423404 1.222569 3.639793
v -2.423404 1.222569 4.225468
v -2.423404 1.203637 4.209142
v -2.421739 0.028964 3.637825
v -2.421739 0.028964 3.653693
v -2.144240 0.028964 3.653693
v -2.144240 0.028964 3.637825
v -2.423404 1.201354 4.211568
v -2.423404 1.219755 4.227436
v -2.423404 0.030628 4.227436
v -2.423404 0.030628 4.211568
v -2.421739 0.030628 3.655357
v -2.421739 1.200309 3.655357
v -2.144240 1.200309 3.655357
v -2.144240 0.030628 3.655357
v -2.421739 1.224233 3.637825
v -2.144240 1.224233 3.637825
v -2.144240 1.224233 4.227436
v -2.421739 1.224233 4.227436
v -2.423404 0.030628 3.637825
v -2.423404 1.219755 3.637825
v -2.423404 1.201354 3.653693
v -2.423404 0.030628 3.653693
v -2.144240 1.200309 4.209904
v -2.421739 1.200309 4.209904
v -2.421739 0.030628 4.209904
v -2.144240 0.030628 4.209904
v -2.144240 1.201973 3.657021
v -2.421739 1.201973 3.657021
v -2.421739 1.201973 4.208240
v -2.144240 1.201973 4.208240
v -2.144240 0.030628 4.229100
v -2.421739 0.030628 4.229100
v -2.421739 1.222569 4.229100
v -2.144240 1.222569 4.229100
v -2.421739 0.028964 4.227436
v -2.144240 0.028964 4.227436
v -2.144240 0.028964 4.211568
v -2.421739 0.028964 4.211568
v -2.144240 1.222569 3.636161
v -2.142576 1.219755 3.637825
v -2.142576 1.222569 3.639793
v -2.144240 1.224233 3.637825
v -2.421739 1.224233 3.637825
v -2.423404 1.222569 3.639793
v -2.423404 1.219755 3.637825
v -2.421739 1.222569 3.636161
v -2.421739 0.030628 3.636161
v -2.423404 0.030628 3.637825
v -2.421739 0.028964 3.637825
v -2.144240 0.030628 4.229100
v -2.142576 0.030628 4.227436
v -2.144240 0.028964 4.227436
v -2.421739 0.028964 4.227436
v -2.423404 0.030628 4.227436
v -2.421739 0.030628 4.229100
v -2.144240 0.028964 3.637825
v -2.142576 0.030628 3.637825
v -2.144240 0.030628 3.636161
v -2.423404 1.219755 4.227436
v -2.423404 1.222569 4.225468
v -2.421739 1.224233 4.227436
v -2.421739 1.222569 4.229100
v -2.142576 1.219755 4.227436
v -2.144240 1.222569 4.229100
v -2.144240 1.224233 4.227436
v -2.142576 1.222569 4.225468
v -2.421739 1.200309 3.655357
v -2.423404 1.201354 3.653693
v -2.423404 1.203637 3.656119
v -2.421739 1.201973 3.657021
v -2.144240 0.030628 3.655357
v -2.142576 0.030628 3.653693
v -2.144240 0.028964 3.653693
v -2.423404 1.203637 4.209142
v -2.423404 1.201354 4.211568
v -2.421739 1.200309 4.209904
v -2.421739 1.201973 4.208240
v -2.423404 0.030628 3.653693
v -2.421739 0.030628 3.655357
v -2.421739 0.028964 3.653693
v -2.144240 1.201973 4.208240
v -2.144240 1.200309 4.209904
v -2.142576 1.201354 4.211568
v -2.142576 1.203637 4.209142
v -2.421739 0.030628 4.209904
v -2.423404 0.030628 4.211568
v -2.421739 0.028964 4.211568
v -2.144240 1.201973 3.657021
v -2.142576 1.203637 3.656119
v -2.142576 1.201354 3.653693
v -2.144240 1.200309 3.655357
v -2.142576 0.030628 4.211568
v -2.144240 0.030628 4.209904
v -2.144240 0.028964 4.211568
v -2.421739 1.224233 3.637825
v -2.421739 1.224233 4.227436
v -2.423404 1.222569 4.225468
v -2.423404 1.222569 3.639793
v -2.421739 1.224233 4.227436
v -2.144240 1.224233 4.227436
v -2.144240 1.222569 4.229100
v -2.421739 1.222569 4.229100
v -2.421739 1.200309 3.655357
v -2.421739 0.030628 3.655357
v -2.423404 0.030628 3.653693
v -2.423404 1.201354 3.653693
v -2.423404 0.030628 3.637825
v -2.423404 0.030628 3.653693
v -2.421739 0.028964 3.653693
v -2.421739 0.028964 3.637825
v -2.421739 0.028964 4.227436
v -2.421739 0.028964 4.211568
v -2.423404 0.030628 4.211568
v -2.423404 0.030628 4.227436
v -2.144240 0.028964 3.637825
v -2.144240 0.028964 3.653693
v -2.142576 0.030628 3.653693
v -2.142576 0.030628 3.637825
v -2.421739 0.028964 4.211568
v -2.144240 0.028964 4.211568
v -2.144240 0.030628 4.209904
v -2.421739 0.030628 4.209904
v -2.142576 0.030628 4.227436
v -2.142576 0.030628 4.211568
v -2.144240 0.028964 4.211568
v -2.144240 0.028964 4.227436
v -2.142576 1.203637 3.656119
v -2.142576 1.222569 3.639793
v -2.142576 1.222569 3.639793
v -2.142576 1.222569 4.225468
v -2.144240 1.224233 4.227436
v -2.144240 1.224233 3.637825
v -2.144240 0.028964 4.227436
v -2.421739 0.028964 4.227436
v -2.421739 0.030628 4.229100
v -2.144240 0.030628 4.229100
v -2.144240 1.224233 3.637825
v -2.421739 1.224233 3.637825
v -2.421739 1.222569 3.636161
v -2.144240 1.222569 3.636161
v -2.421739 0.028964 3.637825
v -2.144240 0.028964 3.637825
v -2.144240 0.030628 3.636161
v -2.421739 0.030628 3.636161
v -2.144240 0.028964 3.653693
v -2.421739 0.028964 3.653693
v -2.421739 0.030628 3.655357
v -2.144240 0.030628 3.655357
v -2.144240 1.222569 3.636161
v -2.144240 0.030628 3.636161
v -2.142576 0.030628 3.637825
v -2.142576 1.219755 3.637825
v -2.144240 0.030628 3.655357
v -2.144240 1.200309 3.655357
v -2.142576 1.201354 3.653693
v -2.142576 0.030628 3.653693
v -2.421739 1.201973 3.657021
v -2.144240 1.201973 3.657021
v -2.144240 1.200309 3.655357
v -2.421739 1.200309 3.655357
v -2.423404 1.203637 3.656119
v -2.423404 1.203637 4.209142
v -2.421739 1.201973 4.208240
v -2.421739 1.201973 3.657021
v -2.423404 1.219755 3.637825
v -2.423404 0.030628 3.637825
v -2.421739 0.030628 3.636161
v -2.421739 1.222569 3.636161
v -2.144240 1.200309 4.209904
v -2.144240 0.030628 4.209904
v -2.142576 0.030628 4.211568
v -2.142576 1.201354 4.211568
v -2.144240 0.030628 4.229100
v -2.144240 1.222569 4.229100
v -2.142576 1.219755 4.227436
v -2.142576 0.030628 4.227436
v -2.423404 1.201354 4.211568
v -2.423404 0.030628 4.211568
v -2.421739 0.030628 4.209904
v -2.421739 1.200309 4.209904
v -2.142576 1.222569 4.225468
v -2.142576 1.203637 4.209142
v -2.421739 1.200309 4.209904
v -2.144240 1.200309 4.209904
v -2.144240 1.201973 4.208240
v -2.421739 1.201973 4.208240
v -2.142576 1.203637 4.209142
v -2.142576 1.203637 3.656119
v -2.144240 1.201973 3.657021
v -2.144240 1.201973 4.208240
v -2.423404 0.030628 4.227436
v -2.423404 1.219755 4.227436
v -2.421739 1.222569 4.229100
v -2.421739 0.030628 4.229100
vn 0.000000 0.000000 1.000000
vn 0.000000 0.000000 1.000000
vn 0.000000 0.000000 1.000000
vn 0.000000 0.000000 1.000000
vn -1.000000 0.000000 0.000000
vn -1.000000 0.000000 0.000000
vn -1.000000 0.000000 0.000000
vn -1.000000 0.000000 0.000000
vn -1.000000 0.000000 0.000000
vn -1.000000 0.000000 0.000000
vn -1.000000 0.000000 0.000000
vn -1.000000 0.000000 0.000000
vn 1.000000 0.000000 0.000000
vn 1.000000 0.000000 0.000000
vn 1.000000 0.000000 0.000000
vn 1.000000 0.000000 0.000000
vn 0.000000 1.000000 0.000000
vn 0.000000 1.000000 0.000000
vn 0.000000 1.000000 0.000000
vn 0.000000 1.000000 0.000000
vn 1.000000 0.000000 0.000000
vn 1.000000 0.000000 0.000000
vn 1.000000 0.000000 0.000000
vn 1.000000 0.000000 0.000000
vn 0.000000 0.000000 -1.000000
vn 0.000000 0.000000 -1.000000
vn 0.000000 0.000000 -1.000000
vn 0.000000 0.000000 -1.000000
vn 0.000000 -1.000000 0.000000
vn 0.000000 -1.000000 0.000000
vn 0.000000 -1.000000 0.000000
vn 0.000000 -1.000000 0.000000
vn 1.000000 0.000000 0.000000
vn 1.000000 0.000000 0.000000
vn 1.000000 0.000000 0.000000
vn 1.000000 0.000000 0.000000
vn 0.000000 0.000000 1.000000
vn 0.000000 0.000000 1.000000
vn 0.000000 0.000000 1.000000
vn 0.000000 0.000000 1.000000
vn 0.000000 1.000000 0.000000
vn 0.000000 1.000000 0.000000
vn 0.000000 1.000000 0.000000
vn 0.000000 1.000000 0.000000
vn 0.000000 0.000000 -1.000000
vn 0.000000 0.000000 -1.000000
vn 0.000000 0.000000 -1.000000
vn 0.000000 0.000000 -1.000000
vn 0.000000 1.000000 0.000000
vn 0.000000 1.000000 0.000000
vn 0.000000 1.000000 0.000000
vn 0.000000 1.000000 0.000000
vn -0.861300 -0.320000 0.394600
vn -0.861300 -0.320000 0.394600
vn -0.861300 -0.320000 0.394600
vn -0.861300 -0.320000 0.394600
vn 0.861300 -0.320000 0.394600
vn 0.861300 -0.320000 0.394600
vn 0.861300 -0.320000 0.394600
vn 0.861300 -0.320000 0.394600
vn 0.577400 0.577300 0.577400
vn 0.577400 0.577300 0.577400
vn 0.577400 0.577300 0.577400
vn -0.577300 0.577400 -0.577400
vn -0.577300 0.577400 -0.577400
vn -0.577300 0.577400 -0.577400
vn 0.577300 0.577400 -0.577400
vn 0.577300 0.577400 -0.577400
vn 0.577300 0.577400 -0.577400
vn -0.577400 0.577300 0.577300
vn -0.577400 0.577300 0.577300
vn -0.577400 0.577300 0.577300
vn 0.861300 -0.320100 -0.394600
vn 0.861300 -0.320100 -0.394600
vn 0.861300 -0.320100 -0.394600
vn 0.861300 -0.320100 -0.394600
vn -0.861300 -0.320100 -0.394600
vn -0.861300 -0.320100 -0.394600
vn -0.861300 -0.320100 -0.394600
vn -0.861300 -0.320100 -0.394600
vn 0.746300 0.479000 -0.462100
vn 0.746300 0.479000 -0.462100
vn 0.746300 0.479000 -0.462100
vn 0.746300 0.479000 -0.462100
vn -0.577400 0.577300 -0.577300
vn -0.577400 0.577300 -0.577300
vn -0.577400 0.577300 -0.577300
vn 0.746300 0.479100 0.462100
vn 0.746300 0.479100 0.462100
vn 0.746300 0.479100 0.462100
vn 0.746300 0.479100 0.462100
vn 0.577400 0.577400 -0.577300
vn 0.577400 0.577400 -0.577300
vn 0.577400 0.577400 -0.577300
vn -0.746300 0.479000 0.462100
vn -0.746300 0.479000 0.462100
vn -0.746300 0.479000 0.462100
vn -0.746300 0.479000 0.462100
vn 0.577300 0.577400 0.577400
vn 0.577300 0.577400 0.577400
vn 0.577300 0.577400 0.577400
vn -0.746300 0.479000 -0.462100
vn -0.746300 0.479000 -0.462100
vn -0.746300 0.479000 -0.462100
vn -0.746300 0.479000 -0.462100
vn -0.577300 0.577400 0.577400
vn -0.577300 0.577400 0.577400
vn -0.577300 0.577400 0.577400
vn 0.707100 -0.707200 0.000000
vn 0.707100 -0.707200 0.000000
vn 0.707100 -0.707200 0.000000
vn 0.707100 -0.707200 0.000000
vn 0.000000 -0.707100 -0.707100
vn 0.000000 -0.707100 -0.707100
vn 0.000000 -0.707100 -0.707100
vn 0.000000 -0.707100 -0.707100
vn 0.707000 0.000000 -0.707200
vn 0.707000 0.000000 -0.707200
vn 0.707000 0.000000 -0.707200
vn 0.707000 0.000000 -0.707200
vn 0.707100 0.707200 0.000000
vn 0.707100 0.707200 0.000000
vn 0.707100 0.707200 0.000000
vn 0.707100 0.707200 0.000000
vn 0.707100 0.707100 0.000000
vn 0.707100 0.707100 0.000000
vn 0.707100 0.707100 0.000000
vn 0.707100 0.707100 0.000000
vn -0.707100 0.707200 0.000000
vn -0.707100 0.707200 0.000000
vn -0.707100 0.707200 0.000000
vn -0.707100 0.707200 0.000000
vn 0.000000 0.707100 0.707100
vn 0.000000 0.707100 0.707100
vn 0.000000 0.707100 0.707100
vn 0.000000 0.707100 0.707100
vn -0.707100 0.707100 0.000000
vn -0.707100 0.707100 0.000000
vn -0.707100 0.707100 0.000000
vn -0.707100 0.707100 0.000000
vn -1.000000 0.000000 0.000000
vn -1.000000 0.000000 0.000000
vn -0.707100 -0.707100 0.000000
vn -0.707100 -0.707100 0.000000
vn -0.707100 -0.707100 0.000000
vn -0.707100 -0.707100 0.000000
vn 0.000000 0.707100 -0.707100
vn 0.000000 0.707100 -0.707100
vn 0.000000 0.707100 -0.707100
vn 0.000000 0.707100 -0.707100
vn 0.000000 -0.707100 0.707100
vn 0.000000 -0.707100 0.707100
vn 0.000000 -0.707100 0.707100
vn 0.000000 -0.707100 0.707100
vn 0.000000 0.707100 0.707100
vn 0.000000 0.707100 0.707100
vn 0.000000 0.707100 0.707100
vn 0.000000 0.707100 0.707100
vn 0.000000 0.707100 -0.707100
vn 0.000000 0.707100 -0.707100
vn 0.000000 0.707100 -0.707100
vn 0.000000 0.707100 -0.707100
vn -0.707100 0.000000 0.707100
vn -0.707100 0.000000 0.707100
vn -0.707100 0.000000 0.707100
vn -0.707100 0.000000 0.707100
vn -0.707000 0.000000 -0.707200
vn -0.707000 0.000000 -0.707200
vn -0.707000 0.000000 -0.707200
vn -0.707000 0.000000 -0.707200
vn 0.000000 0.707100 -0.707100
vn 0.000000 0.707100 -0.707100
vn 0.000000 0.707100 -0.707100
vn 0.000000 0.707100 -0.707100
vn 0.707100 0.707200 0.000000
vn 0.707100 0.707200 0.000000
vn 0.707100 0.707200 0.000000
vn 0.707100 0.707200 0.000000
vn 0.707100 0.000000 0.707100
vn 0.707100 0.000000 0.707100
vn 0.707100 0.000000 0.707100
vn 0.707100 0.000000 0.707100
vn -0.707200 0.000000 0.707000
vn -0.707200 0.000000 0.707000
vn -0.707200 0.000000 0.707000
vn -0.707200 0.000000 0.707000
vn -0.707100 0.000000 -0.707100
vn -0.707100 0.000000 -0.707100
vn -0.707100 0.000000 -0.707100
vn -0.707100 0.000000 -0.707100
vn 0.707200 0.000000 0.707000
vn 0.707200 0.000000 0.707000
vn 0.707200 0.000000 0.707000
vn 0.707200 0.000000 0.707000
vn -1.000000 0.000000 0.000000
vn -1.000000 0.000000 0.000000
vn 0.000000 0.707100 0.707100
vn 0.000000 0.707100 0.707100
vn 0.000000 0.707100 0.707100
vn 0.000000 0.707100 0.707100
vn -0.707100 0.707200 0.000000
vn -0.707100 0.707200 0.000000
vn -0.707100 0.707200 0.000000
vn -0.707100 0.707200 0.000000
vn 0.707100 0.000000 -0.707100
vn 0.707100 0.000000 -0.707100
vn 0.707100 0.000000 -0.707100
vn 0.707100 0.000000 -0.707100
vt 0.000000 0.000000
vt 0.000000 0.000000
vt 0.000000 0.000000
vt 0.000000 0.000000
vt 0.000000 0.000000
vt 0.000000 0.000000
vt 0.000000 0.000000
vt 0.000000 0.000000
vt 0.000000 0.000000
vt 0.000000 0.000000
vt 0.000000 0.000000
vt 0.000000 0.000000
vt 0.000000 0.000000
vt 0.000000 0.000000
vt 0.000000 0.000000
vt 0.000000 0.000000
vt 0.000000 0.000000
vt 0.000000 0.000000
vt 0.000000 0.000000
vt 0.000000 0.000000
vt 0.000000 0.000000
vt 0.000000 0.000000
vt 0.000000 0.000000
vt 0.000000 0.000000
vt 0.000000 0.000000
vt 0.000000 0.000000
vt 0.000000 0.000000
vt 0.000000 0.000000
vt 0.000000 0.000000
vt 0.000000 0.000000
vt 0.000000 0.000000
vt 0.000000 0.000000
vt 0.000000 0.000000
vt 0.000000 0.000000
vt 0.000000 0.000000
vt 0.000000 0.000000
vt 0.000000 0.000000
vt 0.000000 0.000000
vt 0.000000 0.000000
vt 0.000000 0.000000
vt 0.000000 0.000000
vt 0.000000 0.000000
vt 0.000000 0.000000
vt 0.000000 0.000000
vt 0.000000 0.000000
vt 0.000000 0.000000
vt 0.000000 0.000000
vt 0.000000 0.000000
vt 0.000000 0.000000
vt 0.000000 0.000000
vt 0.000000 0.000000
vt 0.000000 0.000000
vt 0.000000 0.000000
vt 0.000000 0.000000
vt 0.000000 0.000000
vt 0.000000 0.000000
vt 0.000000 0.000000
vt 0.000000 0.000000
vt 0.000000 0.000000
vt 0.000000 0.000000
vt 0.000000 0.000000
vt 0.000000 0.000000
vt 0.000000 0.000000
vt 0.000000 0.000000
vt 0.000000 0.000000
vt 0.000000 0.000000
vt 0.000000 0.000000
vt 0.000000 0.000000
vt 0.000000 0.000000
vt 0.000000 0.000000
vt 0.000000 0.000000
vt 0.000000 0.000000
vt 0.000000 0.000000
vt 0.000000 0.000000
vt 0.000000 0.000000
vt 0.000000 0.000000
vt 0.000000 0.000000
vt 0.000000 0.000000
vt 0.000000 0.000000
vt 0.000000 0.000000
vt 0.000000 0.000000
vt 0.000000 0.000000
vt 0.000000 0.000000
vt 0.000000 0.000000
vt 0.000000 0.000000
vt 0.000000 0.000000
vt 0.000000 0.000000
vt 0.000000 0.000000
vt 0.000000 0.000000
vt 0.000000 0.000000
vt 0.000000 0.000000
vt 0.000000 0.000000
vt 0.000000 0.000000
vt 0.000000 0.000000
vt 0.000000 0.000000
vt 0.000000 0.000000
vt 0.000000 0.000000
vt 0.000000 0.000000
vt 0.000000 0.000000
vt 0.000000 0.000000
vt 0.000000 0.000000
vt 0.000000 0.000000
vt 0.000000 0.000000
vt 0.000000 0.000000
vt 0.000000 0.000000
vt 0.000000 0.000000
vt 0.000000 0.000000
vt 0.000000 0.000000
vt 0.000000 0.000000
vt 0.000000 0.000000
vt 0.000000 0.000000
vt 0.000000 0.000000
vt 0.000000 0.000000
vt 0.000000 0.000000
vt 0.000000 0.000000
vt 0.000000 0.000000
vt 0.000000 0.000000
vt 0.000000 0.000000
vt 0.000000 0.000000
vt 0.000000 0.000000
vt 0.000000 0.000000
vt 0.000000 0.000000
vt 0.000000 0.000000
vt 0.000000 0.000000
vt 0.000000 0.000000
vt 0.000000 0.000000
vt 0.000000 0.000000
vt 0.000000 0.000000
vt 0.000000 0.000000
vt 0.000000 0.000000
vt 0.000000 0.000000
vt 0.000000 0.000000
vt 0.000000 0.000000
vt 0.000000 0.000000
vt 0.000000 0.000000
vt 0.000000 0.000000
vt 0.000000 0.000000
vt 0.000000 0.000000
vt 0.000000 0.000000
vt 0.000000 0.000000
vt 0.000000 0.000000
vt 0.000000 0.000000
vt 0.000000 0.000000
vt 0.000000 0.000000
vt 0.000000 0.000000
vt 0.000000 0.000000
vt 0.000000 0.000000
vt 0.000000 0.000000
vt 0.000000 0.000000
vt 0.000000 0.000000
vt 0.000000 0.000000
vt 0.000000 0.000000
vt 0.000000 0.000000
vt 0.000000 0.000000
vt 0.000000 0.000000
vt 0.000000 0.000000
vt 0.000000 0.000000
vt 0.000000 0.000000
vt 0.000000 0.000000
vt 0.000000 0.000000
vt 0.000000 0.000000
vt 0.000000 0.000000
vt 0.000000 0.000000
vt 0.000000 0.000000
vt 0.000000 0.000000
vt 0.000000 0.000000
vt 0.000000 0.000000
vt 0.000000 0.000000
vt 0.000000 0.000000
vt 0.000000 0.000000
vt 0.000000 0.000000
vt 0.000000 0.000000
vt 0.000000 0.000000
vt 0.000000 0.000000
vt 0.000000 0.000000
vt 0.000000 0.000000
vt 0.000000 0.000000
vt 0.000000 0.000000
vt 0.000000 0.000000
vt 0.000000 0.000000
vt 0.000000 0.000000
vt 0.000000 0.000000
vt 0.000000 0.000000
vt 0.000000 0.000000
vt 0.000000 0.000000
vt 0.000000 0.000000
vt 0.000000 0.000000
vt 0.000000 0.000000
vt 0.000000 0.000000
vt 0.000000 0.000000
vt 0.000000 0.000000
vt 0.000000 0.000000
vt 0.000000 0.000000
vt 0.000000 0.000000
vt 0.000000 0.000000
vt 0.000000 0.000000
vt 0.000000 0.000000
vt 0.000000 0.000000
vt 0.000000 0.000000
vt 0.000000 0.000000
vt 0.000000 0.000000
vt 0.000000 0.000000
vt 0.000000 0.000000
vt 0.000000 0.000000
vt 0.000000 0.000000
vt 0.000000 0.000000
vt 0.000000 0.000000
vt 0.000000 0.000000
f 1/1/1 2/2/2 3/3/3
f 1/1/1 3/3/3 4/4/4
f 5/5/5 6/6/6 7/7/7
f 5/5/5 7/7/7 8/8/8
f 9/9/9 10/10/10 11/11/11
f 9/9/9 11/11/11 12/12/12
f 13/13/13 14/14/14 15/15/15
f 13/13/13 15/15/15 16/16/16
f 17/17/17 18/18/18 19/19/19
f 17/17/17 19/19/19 20/20/20
f 21/21/21 22/22/22 23/23/23
f 21/21/21 23/23/23 24/24/24
f 25/25/25 26/26/26 27/27/27
f 25/25/25 27/27/27 28/28/28
f 29/29/29 30/30/30 31/31/31
f 29/29/29 31/31/31 32/32/32
f 33/33/33 34/34/34 35/35/35
f 33/33/33 35/35/35 36/36/36
f 37/37/37 38/38/38 39/39/39
f 37/37/37 39/39/39 40/40/40
f 41/41/41 42/42/42 43/43/43
f 41/41/41 43/43/43 44/44/44
f 45/45/45 46/46/46 47/47/47
f 45/45/45 47/47/47 48/48/48
f 49/49/49 50/50/50 51/51/51
f 49/49/49 51/51/51 52/52/52
f 53/53/53 54/54/54 55/55/55
f 53/53/53 55/55/55 56/56/56
f 57/57/57 58/58/58 59/59/59
f 57/57/57 59/59/59 60/60/60
f 61/61/61 62/62/62 63/63/63
f 64/64/64 65/65/65 66/66/66
f 67/67/67 68/68/68 69/69/69
f 70/70/70 71/71/71 72/72/72
f 73/73/73 74/74/74 75/75/75
f 73/73/73 75/75/75 76/76/76
f 77/77/77 78/78/78 79/79/79
f 77/77/77 79/79/79 80/80/80
f 81/81/81 82/82/82 83/83/83
f 81/81/81 83/83/83 84/84/84
f 85/85/85 86/86/86 87/87/87
f 88/88/88 89/89/89 90/90/90
f 88/88/88 90/90/90 91/91/91
f 92/92/92 93/93/93 94/94/94
f 95/95/95 96/96/96 97/97/97
f 95/95/95 97/97/97 98/98/98
f 99/99/99 100/100/100 101/101/101
f 102/102/102 103/103/103 104/104/104
f 102/102/102 104/104/104 105/105/105
f 106/106/106 107/107/107 108/108/108
f 109/109/109 110/110/110 111/111/111
f 109/109/109 111/111/111 112/112/112
f 113/113/113 114/114/114 115/115/115
f 113/113/113 115/115/115 116/116/116
f 117/117/117 118/118/118 119/119/119
f 117/117/117 119/119/119 120/120/120
f 121/121/121 122/122/122 123/123/123
f 121/121/121 123/123/123 124/124/124
f 125/125/125 126/126/126 127/127/127
f 125/125/125 127/127/127 128/128/128
f 129/129/129 130/130/130 131/131/131
f 129/129/129 131/131/131 132/132/132
f 22/22/22 21/21/21 16/16/16
f 22/22/22 16/16/16 15/15/15
f 133/133/133 134/134/134 135/135/135
f 133/133/133 135/135/135 136/136/136
f 137/137/137 138/138/138 139/139/139
f 137/137/137 139/139/139 140/140/140
f 6/6/6 5/5/5 141/141/141
f 6/6/6 141/141/141 142/142/142
f 143/143/143 144/144/144 145/145/145
f 143/143/143 145/145/145 146/146/146
f 147/147/147 148/148/148 149/149/149
f 147/147/147 149/149/149 150/150/150
f 151/151/151 152/152/152 153/153/153
f 151/151/151 153/153/153 154/154/154
f 155/155/155 156/156/156 157/157/157
f 155/155/155 157/157/157 158/158/158
f 159/159/159 160/160/160 161/161/161
f 159/159/159 161/161/161 162/162/162
f 163/163/163 164/164/164 165/165/165
f 163/163/163 165/165/165 166/166/166
f 167/167/167 168/168/168 169/169/169
f 167/167/167 169/169/169 170/170/170
f 171/171/171 172/172/172 173/173/173
f 171/171/171 173/173/173 174/174/174
f 175/175/175 176/176/176 177/177/177
f 175/175/175 177/177/177 178/178/178
f 14/14/14 13/13/13 35/35/35
f 14/14/14 35/35/35 34/34/34
f 179/179/179 180/180/180 181/181/181
f 179/179/179 181/181/181 182/182/182
f 183/183/183 184/184/184 185/185/185
f 183/183/183 185/185/185 186/186/186
f 187/187/187 188/188/188 189/189/189
f 187/187/187 189/189/189 190/190/190
f 191/191/191 192/192/192 193/193/193
f 191/191/191 193/193/193 194/194/194
f 195/195/195 196/196/196 11/11/11
f 195/195/195 11/11/11 10/10/10
f 197/197/197 198/198/198 199/199/199
f 197/197/197 199/199/199 200/200/200
f 201/201/201 202/202/202 203/203/203
f 201/201/201 203/203/203 204/204/204
f 205/205/205 206/206/206 207/207/207
f 205/205/205 207/207/207 208/208/208
f 195/195/195 142/142/142 141/141/141
f 195/195/195 141/141/141 196/196/196
