v -2.359257 0.931656 3.663105
v -2.186996 0.931656 3.663105
v -2.186996 1.146735 3.655562
v -2.359257 1.146735 3.655562
v -2.186996 0.932531 3.688071
v -2.359257 0.932531 3.688071
v -2.359257 1.147611 3.680528
v -2.186996 1.147611 3.680528
v -2.186170 0.931700 3.664370
v -2.186996 0.931656 3.663105
v -2.359257 0.931656 3.663105
v -2.359257 0.931700 3.664370
v -2.359257 0.932487 3.686805
v -2.186170 0.932487 3.686805
v -2.359257 0.932487 3.686805
v -2.359257 0.932531 3.688071
v -2.186996 0.932531 3.688071
v -2.186170 0.932487 3.686805
v -2.359257 0.932531 3.688071
v -2.359257 0.932487 3.686805
v -2.359257 1.147566 3.679262
v -2.359257 1.147611 3.680528
v -2.359257 0.931700 3.664370
v -2.359257 1.146780 3.656827
v -2.359257 0.931656 3.663105
v -2.359257 1.146735 3.655562
v -2.186996 0.931656 3.663105
v -2.186170 0.931700 3.664370
v -2.186170 1.146780 3.656827
v -2.186996 1.146735 3.655562
v -2.186170 0.931700 3.664370
v -2.186170 0.932487 3.686805
v -2.186170 1.147566 3.679263
v -2.186170 1.146780 3.656827
v -2.186170 0.932487 3.686805
v -2.186996 0.932531 3.688071
v -2.186996 1.147611 3.680528
v -2.186170 1.147566 3.679263
v -2.359257 1.147611 3.680528
v -2.359257 1.147566 3.679262
v -2.186170 1.147566 3.679263
v -2.186996 1.147611 3.680528
v -2.359257 1.147566 3.679262
v -2.359257 1.146780 3.656827
v -2.186170 1.146780 3.656827
v -2.186170 1.147566 3.679263
v -2.359257 1.146735 3.655562
v -2.186996 1.146735 3.655562
vn 0.000000 0.035000 0.999400
vn 0.000000 0.035000 0.999400
vn 0.000000 0.035000 0.999400
vn 0.000000 0.035000 0.999400
vn 0.000000 -0.035000 -0.999400
vn 0.000000 -0.035000 -0.999400
vn 0.000000 -0.035000 -0.999400
vn 0.000000 -0.035000 -0.999400
vn 0.000000 0.999400 -0.035000
vn 0.000000 0.999400 -0.035000
vn 0.000000 0.999400 -0.035000
vn 0.000000 0.999400 -0.035000
vn 0.000000 0.999400 -0.035000
vn 0.000000 0.999400 -0.035000
vn 0.000000 0.999400 -0.035100
vn 0.000000 0.999400 -0.035100
vn 0.000000 0.999400 -0.035100
vn 0.000000 0.999400 -0.035100
vn 1.000000 0.000000 0.000000
vn 1.000000 0.000000 0.000000
vn 1.000000 0.000000 0.000000
vn 1.000000 0.000000 0.000000
vn 1.000000 0.000000 0.000000
vn 1.000000 0.000000 0.000000
vn 1.000000 0.000000 0.000000
vn 1.000000 0.000000 0.000000
vn -0.837500 0.019100 0.546100
vn -0.837500 0.019100 0.546100
vn -0.837500 0.019100 0.546100
vn -0.837500 0.019100 0.546100
vn -1.000000 0.000000 0.000000
vn -1.000000 0.000000 0.000000
vn -1.000000 0.000000 0.000000
vn -1.000000 0.000000 0.000000
vn -0.837500 -0.019200 -0.546200
vn -0.837500 -0.019200 -0.546200
vn -0.837500 -0.019200 -0.546200
vn -0.837500 -0.019200 -0.546200
vn 0.000000 -0.999400 0.035100
vn 0.000000 -0.999400 0.035100
vn 0.000000 -0.999400 0.035100
vn 0.000000 -0.999400 0.035100
vn 0.000000 -0.999400 0.035000
vn 0.000000 -0.999400 0.035000
vn 0.000000 -0.999400 0.035000
vn 0.000000 -0.999400 0.035000
vn 0.000000 -0.999400 0.035000
vn 0.000000 -0.999400 0.035000
vt 0.932659 0.002481
vt 0.930861 0.002481
vt 0.930861 0.937010
vt 0.932659 0.937010
vt 0.884981 0.002481
vt 0.883558 0.002481
vt 0.883558 0.937010
vt 0.884981 0.937010
vt 0.987148 0.008603
vt 0.989829 0.008603
vt 0.989829 0.127444
vt 0.987148 0.127444
vt 0.946689 0.127444
vt 0.946689 0.008603
vt 0.946689 0.127444
vt 0.943949 0.127444
vt 0.943949 0.008603
vt 0.946689 0.008603
vt 0.943949 0.127444
vt 0.946689 0.127444
vt 0.946689 0.256778
vt 0.943949 0.256778
vt 0.987148 0.127444
vt 0.987148 0.256778
vt 0.989829 0.127444
vt 0.989829 0.256778
vt 0.930861 0.002481
vt 0.928121 0.002481
vt 0.928121 0.937010
vt 0.930861 0.937010
vt 0.928121 0.002481
vt 0.887662 0.002481
vt 0.887662 0.937010
vt 0.928121 0.937010
vt 0.887662 0.002481
vt 0.884981 0.002481
vt 0.884981 0.937010
vt 0.887662 0.937010
vt 0.943949 0.256778
vt 0.946689 0.256778
vt 0.946689 0.375415
vt 0.943949 0.375415
vt 0.946689 0.256778
vt 0.987148 0.256778
vt 0.987148 0.375415
vt 0.946689 0.375415
vt 0.989829 0.256778
vt 0.989829 0.375415
f 1/1/1 2/2/2 3/3/3
f 1/1/1 3/3/3 4/4/4
f 5/5/5 6/6/6 7/7/7
f 5/5/5 7/7/7 8/8/8
f 9/9/9 10/10/10 11/11/11
f 9/9/9 11/11/11 12/12/12
f 12/12/12 13/13/13 14/14/14
f 12/12/12 14/14/14 9/9/9
f 15/15/15 16/16/16 17/17/17
f 15/15/15 17/17/17 18/18/18
f 19/19/19 20/20/20 21/21/21
f 19/19/19 21/21/21 22/22/22
f 20/20/20 23/23/23 24/24/24
f 20/20/20 24/24/24 21/21/21
f 23/23/23 25/25/25 26/26/26
f 23/23/23 26/26/26 24/24/24
f 27/27/27 28/28/28 29/29/29
f 27/27/27 29/29/29 30/30/30
f 31/31/31 32/32/32 33/33/33
f 31/31/31 33/33/33 34/34/34
f 35/35/35 36/36/36 37/37/37
f 35/35/35 37/37/37 38/38/38
f 39/39/39 40/40/40 41/41/41
f 39/39/39 41/41/41 42/42/42
f 43/43/43 44/44/44 45/45/45
f 43/43/43 45/45/45 46/46/46
f 44/44/44 47/47/47 48/48/48
f 44/44/44 48/48/48 45/45/45
